G04 Layer: BottomLayer*
G04 EasyEDA v6.5.54, 2026-04-15 14:19:41*
G04 f99edf9f5cd84b74b57bf5261354b4ee,5dced3e560e646c4aeb98d0811621806,10*
G04 Gerber Generator version 0.2*
G04 Scale: 100 percent, Rotated: No, Reflected: No *
G04 Dimensions in millimeters *
G04 leading zeros omitted , absolute positions ,4 integer and 5 decimal *
%FSLAX45Y45*%
%MOMM*%

%AMMACRO1*21,1,$1,$2,0,0,$3*%
%ADD10C,0.2540*%
%ADD11C,0.5000*%
%ADD12C,2.5000*%
%ADD13C,0.2860*%
%ADD14C,0.3586*%
%ADD15C,1.0000*%
%ADD16C,4.0000*%
%ADD17C,2.0000*%
%ADD18C,1.6000*%
%ADD19C,0.0137*%
%ADD20C,1.8000*%
%ADD21C,1.5240*%
%ADD22C,2.7940*%
%ADD23MACRO1,2.5X2.5X0.0000*%
%ADD24R,1.8000X1.8000*%
%ADD25R,1.6000X1.6000*%
%ADD26C,0.6200*%

%LPD*%
G36*
X3205175Y-16799966D02*
G01*
X3201263Y-16799204D01*
X3197961Y-16796969D01*
X3195777Y-16793718D01*
X3195015Y-16789806D01*
X3195015Y-6170980D01*
X3193999Y-6169964D01*
X1699209Y-6169964D01*
X1695297Y-6169202D01*
X1691995Y-6167018D01*
X1107948Y-5582970D01*
X1105763Y-5579668D01*
X1105001Y-5575757D01*
X1105001Y-5070144D01*
X1105763Y-5066284D01*
X1107948Y-5062982D01*
X1111250Y-5060746D01*
X1115161Y-5059984D01*
X2088946Y-5059984D01*
X2092807Y-5060746D01*
X2096109Y-5062982D01*
X2098294Y-5066284D01*
X2099106Y-5070144D01*
X2099106Y-5504434D01*
X2099818Y-5510733D01*
X2101697Y-5516219D01*
X2104796Y-5521096D01*
X2108860Y-5525211D01*
X2113788Y-5528259D01*
X2119223Y-5530189D01*
X2125573Y-5530900D01*
X4054398Y-5530900D01*
X4060748Y-5530189D01*
X4066184Y-5528259D01*
X4071112Y-5525211D01*
X4075125Y-5521147D01*
X4078986Y-5514848D01*
X4081272Y-5512257D01*
X4084269Y-5510580D01*
X4087672Y-5509971D01*
X4103979Y-5509971D01*
X4104284Y-5509260D01*
X4097985Y-5502960D01*
X4095750Y-5499658D01*
X4094987Y-5495798D01*
X4094987Y-2504186D01*
X4095750Y-2500325D01*
X4097985Y-2497023D01*
X4914290Y-1680718D01*
X4915001Y-1678990D01*
X4915001Y-840079D01*
X4905197Y-36169D01*
X4905908Y-32258D01*
X4908092Y-28905D01*
X4911445Y-26670D01*
X4915357Y-25908D01*
X8513826Y-25908D01*
X8517737Y-26670D01*
X8520988Y-28905D01*
X8523224Y-32156D01*
X8523986Y-36068D01*
X8523986Y-6999376D01*
X8524798Y-7005878D01*
X8526881Y-7011416D01*
X8530488Y-7016597D01*
X8532164Y-7018375D01*
X8534247Y-7021575D01*
X8534958Y-7025386D01*
X8534958Y-7198969D01*
X8535974Y-7199985D01*
X9384842Y-7199985D01*
X9388703Y-7200747D01*
X9392005Y-7202982D01*
X9394190Y-7206234D01*
X9395002Y-7210145D01*
X9395002Y-7598968D01*
X9395663Y-7600696D01*
X10992002Y-9196984D01*
X10994186Y-9200286D01*
X10994999Y-9204198D01*
X10994999Y-16789806D01*
X10994186Y-16793718D01*
X10992002Y-16796969D01*
X10988700Y-16799204D01*
X10984839Y-16799966D01*
G37*

%LPC*%
G36*
X3933240Y-16598798D02*
G01*
X3952240Y-16598341D01*
X3971137Y-16595953D01*
X3989679Y-16591737D01*
X4007713Y-16585692D01*
X4025087Y-16577818D01*
X4041546Y-16568318D01*
X4056989Y-16557193D01*
X4071264Y-16544645D01*
X4084218Y-16530675D01*
X4095699Y-16515486D01*
X4105656Y-16499281D01*
X4113885Y-16482110D01*
X4120387Y-16464229D01*
X4125112Y-16445788D01*
X4127957Y-16426992D01*
X4128871Y-16407993D01*
X4127957Y-16388943D01*
X4125112Y-16370147D01*
X4120387Y-16351707D01*
X4113885Y-16333825D01*
X4105656Y-16316655D01*
X4095699Y-16300450D01*
X4084218Y-16285260D01*
X4071264Y-16271290D01*
X4056989Y-16258743D01*
X4041546Y-16247618D01*
X4025087Y-16238118D01*
X4007713Y-16230244D01*
X3989679Y-16224199D01*
X3971137Y-16219982D01*
X3952240Y-16217595D01*
X3933240Y-16217138D01*
X3914241Y-16218560D01*
X3895496Y-16221862D01*
X3877208Y-16226993D01*
X3859479Y-16233952D01*
X3842562Y-16242639D01*
X3826560Y-16252951D01*
X3811676Y-16264839D01*
X3798062Y-16278148D01*
X3785819Y-16292728D01*
X3775100Y-16308425D01*
X3766007Y-16325138D01*
X3758590Y-16342664D01*
X3753002Y-16360851D01*
X3749243Y-16379494D01*
X3747312Y-16398443D01*
X3747312Y-16417493D01*
X3749243Y-16436441D01*
X3753002Y-16455085D01*
X3758590Y-16473271D01*
X3766007Y-16490797D01*
X3775100Y-16507510D01*
X3785819Y-16523207D01*
X3798062Y-16537787D01*
X3811676Y-16551097D01*
X3826560Y-16562984D01*
X3842562Y-16573296D01*
X3859479Y-16581983D01*
X3877208Y-16588943D01*
X3895496Y-16594074D01*
X3914241Y-16597376D01*
G37*
G36*
X4572965Y-16319550D02*
G01*
X4586579Y-16318636D01*
X4599940Y-16315893D01*
X4612843Y-16311422D01*
X4624984Y-16305276D01*
X4636262Y-16297554D01*
X4646371Y-16288410D01*
X4655159Y-16277996D01*
X4662525Y-16266515D01*
X4668266Y-16254171D01*
X4672279Y-16241115D01*
X4674565Y-16227653D01*
X4675022Y-16214039D01*
X4673650Y-16200475D01*
X4670501Y-16187216D01*
X4665573Y-16174466D01*
X4659020Y-16162528D01*
X4650943Y-16151555D01*
X4641443Y-16141750D01*
X4630775Y-16133267D01*
X4619040Y-16126358D01*
X4606442Y-16121024D01*
X4593336Y-16117417D01*
X4579823Y-16115588D01*
X4566158Y-16115588D01*
X4552645Y-16117417D01*
X4539488Y-16121024D01*
X4526940Y-16126358D01*
X4515205Y-16133267D01*
X4504486Y-16141750D01*
X4495038Y-16151555D01*
X4486910Y-16162528D01*
X4480356Y-16174466D01*
X4475480Y-16187216D01*
X4472330Y-16200475D01*
X4470958Y-16214039D01*
X4471416Y-16227653D01*
X4473651Y-16241115D01*
X4477715Y-16254171D01*
X4483455Y-16266515D01*
X4490770Y-16277996D01*
X4499610Y-16288410D01*
X4509719Y-16297554D01*
X4520946Y-16305276D01*
X4533138Y-16311422D01*
X4545990Y-16315893D01*
X4559350Y-16318636D01*
G37*
G36*
X5172405Y-16236797D02*
G01*
X5181955Y-16235578D01*
X5191201Y-16232733D01*
X5199786Y-16228415D01*
X5207558Y-16222675D01*
X5214264Y-16215715D01*
X5219649Y-16207689D01*
X5223611Y-16198900D01*
X5226050Y-16189604D01*
X5226862Y-16180003D01*
X5226050Y-16170351D01*
X5223611Y-16161054D01*
X5219649Y-16152266D01*
X5215382Y-16145763D01*
X5209641Y-16133927D01*
X5208574Y-16129457D01*
X5208574Y-15473680D01*
X5207812Y-15465653D01*
X5205628Y-15458440D01*
X5202072Y-15451785D01*
X5196941Y-15445536D01*
X4281627Y-14530222D01*
X4279392Y-14526920D01*
X4278630Y-14523008D01*
X4281322Y-12309094D01*
X4282084Y-12305233D01*
X4284268Y-12301931D01*
X4287570Y-12299696D01*
X4291482Y-12298934D01*
X4295343Y-12299696D01*
X4298645Y-12301931D01*
X5128412Y-13131952D01*
X5130596Y-13135254D01*
X5131409Y-13139115D01*
X5131409Y-13769441D01*
X5130342Y-13773912D01*
X5124805Y-13785291D01*
X5122875Y-13788136D01*
X5118150Y-13796518D01*
X5114950Y-13805611D01*
X5113324Y-13815161D01*
X5113324Y-13824762D01*
X5114950Y-13834313D01*
X5118150Y-13843406D01*
X5122875Y-13851788D01*
X5128920Y-13859306D01*
X5136184Y-13865707D01*
X5144363Y-13870736D01*
X5153355Y-13874343D01*
X5162753Y-13876375D01*
X5172405Y-13876782D01*
X5181955Y-13875562D01*
X5191201Y-13872718D01*
X5199786Y-13868400D01*
X5207558Y-13862659D01*
X5214264Y-13855700D01*
X5219649Y-13847673D01*
X5223611Y-13838885D01*
X5226050Y-13829588D01*
X5226862Y-13819987D01*
X5226050Y-13810335D01*
X5223611Y-13801039D01*
X5219649Y-13792250D01*
X5215382Y-13785748D01*
X5209641Y-13773912D01*
X5208625Y-13769441D01*
X5208625Y-13119404D01*
X5207812Y-13111429D01*
X5205628Y-13104164D01*
X5202072Y-13097510D01*
X5196941Y-13091261D01*
X4601108Y-12495479D01*
X4361637Y-12255703D01*
X4359402Y-12252401D01*
X4358640Y-12248489D01*
X4358640Y-9937648D01*
X4359402Y-9933787D01*
X4361637Y-9930485D01*
X4364939Y-9928250D01*
X4368800Y-9927488D01*
X4372711Y-9928250D01*
X4376013Y-9930485D01*
X4545685Y-10100411D01*
X5128412Y-10683138D01*
X5130596Y-10686440D01*
X5131409Y-10690301D01*
X5131409Y-11239449D01*
X5130342Y-11243919D01*
X5124805Y-11255298D01*
X5122875Y-11258143D01*
X5118150Y-11266525D01*
X5114950Y-11275618D01*
X5113324Y-11285169D01*
X5113324Y-11294770D01*
X5114950Y-11304320D01*
X5118150Y-11313414D01*
X5122875Y-11321796D01*
X5128920Y-11329314D01*
X5136184Y-11335715D01*
X5144363Y-11340744D01*
X5153355Y-11344351D01*
X5162753Y-11346383D01*
X5172405Y-11346789D01*
X5181955Y-11345570D01*
X5191201Y-11342725D01*
X5199786Y-11338407D01*
X5207558Y-11332667D01*
X5214264Y-11325707D01*
X5219649Y-11317681D01*
X5223611Y-11308892D01*
X5226050Y-11299596D01*
X5226862Y-11289995D01*
X5226050Y-11280343D01*
X5223611Y-11271046D01*
X5219649Y-11262258D01*
X5215382Y-11255756D01*
X5209641Y-11243919D01*
X5208625Y-11239449D01*
X5208625Y-10670590D01*
X5207812Y-10662564D01*
X5205628Y-10655350D01*
X5202072Y-10648696D01*
X5196941Y-10642447D01*
X4600346Y-10045852D01*
X4431487Y-9876739D01*
X4429252Y-9873437D01*
X4428490Y-9869576D01*
X4428490Y-6320180D01*
X4429252Y-6316268D01*
X4431487Y-6312966D01*
X5116880Y-5627573D01*
X5121960Y-5621375D01*
X5125516Y-5614670D01*
X5127752Y-5607456D01*
X5128514Y-5599430D01*
X5128514Y-5360314D01*
X5129276Y-5356402D01*
X5131511Y-5353100D01*
X5692952Y-4791659D01*
X5696254Y-4789424D01*
X5700166Y-4788662D01*
X5732322Y-4788662D01*
X5736183Y-4789424D01*
X5739485Y-4791659D01*
X5741720Y-4794961D01*
X5742482Y-4798822D01*
X5741670Y-4802733D01*
X5739485Y-4806035D01*
X5673090Y-4872228D01*
X5668010Y-4878425D01*
X5664403Y-4885131D01*
X5662218Y-4892344D01*
X5661406Y-4900422D01*
X5661406Y-5408422D01*
X5660694Y-5412232D01*
X5658612Y-5415483D01*
X5655462Y-5417667D01*
X5651703Y-5418582D01*
X5647893Y-5418023D01*
X5644438Y-5415991D01*
X5632907Y-5408269D01*
X5626354Y-5405018D01*
X5626354Y-5453634D01*
X5651246Y-5453634D01*
X5655157Y-5454396D01*
X5658459Y-5456631D01*
X5660644Y-5459933D01*
X5661406Y-5463794D01*
X5661406Y-5536184D01*
X5660644Y-5540044D01*
X5658459Y-5543346D01*
X5655157Y-5545582D01*
X5651246Y-5546344D01*
X5626354Y-5546344D01*
X5626354Y-5594959D01*
X5632907Y-5591708D01*
X5644540Y-5583885D01*
X5647893Y-5581954D01*
X5651703Y-5581396D01*
X5655462Y-5582310D01*
X5658612Y-5584494D01*
X5660694Y-5587746D01*
X5661406Y-5591556D01*
X5661406Y-8059775D01*
X5660644Y-8063687D01*
X5658459Y-8066989D01*
X5083048Y-8642350D01*
X5077917Y-8648598D01*
X5074361Y-8655253D01*
X5072176Y-8662517D01*
X5071414Y-8670493D01*
X5071414Y-8759494D01*
X5070348Y-8763914D01*
X5064861Y-8775293D01*
X5062880Y-8778138D01*
X5058156Y-8786571D01*
X5054955Y-8795664D01*
X5053330Y-8805164D01*
X5053330Y-8814816D01*
X5054955Y-8824315D01*
X5058156Y-8833408D01*
X5062880Y-8841841D01*
X5068925Y-8849360D01*
X5076190Y-8855710D01*
X5084368Y-8860790D01*
X5093360Y-8864346D01*
X5102758Y-8866378D01*
X5112410Y-8866835D01*
X5121960Y-8865565D01*
X5131206Y-8862771D01*
X5139791Y-8858402D01*
X5147564Y-8852662D01*
X5154269Y-8845702D01*
X5159654Y-8837726D01*
X5163616Y-8828938D01*
X5166055Y-8819591D01*
X5166868Y-8809990D01*
X5166055Y-8800388D01*
X5163616Y-8791041D01*
X5159654Y-8782253D01*
X5155387Y-8775801D01*
X5149646Y-8763914D01*
X5148630Y-8759494D01*
X5148630Y-8690203D01*
X5149392Y-8686342D01*
X5151577Y-8683040D01*
X5726988Y-8107629D01*
X5732068Y-8101431D01*
X5735624Y-8094776D01*
X5737860Y-8087512D01*
X5738622Y-8079486D01*
X5738622Y-5579059D01*
X5739485Y-5575046D01*
X5741873Y-5571642D01*
X5745378Y-5569508D01*
X5749493Y-5568950D01*
X5753455Y-5570067D01*
X5756656Y-5572658D01*
X5791504Y-5615330D01*
X5793181Y-5618327D01*
X5793790Y-5621731D01*
X5793790Y-8175142D01*
X5792978Y-8179003D01*
X5790793Y-8182305D01*
X5466435Y-8506663D01*
X5463184Y-8508847D01*
X5451652Y-8513622D01*
X5443321Y-8515604D01*
X5434380Y-8519210D01*
X5426151Y-8524240D01*
X5418937Y-8530640D01*
X5412841Y-8538159D01*
X5408168Y-8546541D01*
X5404967Y-8555634D01*
X5403342Y-8565184D01*
X5403342Y-8574786D01*
X5404967Y-8584336D01*
X5408168Y-8593429D01*
X5412841Y-8601811D01*
X5414822Y-8604656D01*
X5420360Y-8616035D01*
X5421376Y-8620506D01*
X5421376Y-11003178D01*
X5420817Y-11006531D01*
X5419140Y-11009528D01*
X5412638Y-11017351D01*
X5408930Y-11020602D01*
X5402884Y-11028121D01*
X5398160Y-11036554D01*
X5394960Y-11045647D01*
X5393334Y-11055146D01*
X5393334Y-11064798D01*
X5394960Y-11074298D01*
X5398160Y-11083391D01*
X5404510Y-11094516D01*
X5409031Y-11105438D01*
X5409793Y-11109350D01*
X5409793Y-13525195D01*
X5409031Y-13529056D01*
X5404510Y-13540079D01*
X5398262Y-13551103D01*
X5395061Y-13560196D01*
X5393436Y-13569696D01*
X5393436Y-13579348D01*
X5395061Y-13588847D01*
X5398262Y-13597940D01*
X5404561Y-13609066D01*
X5409082Y-13619988D01*
X5409895Y-13623899D01*
X5409895Y-15925190D01*
X5409082Y-15929101D01*
X5404561Y-15940074D01*
X5398262Y-15951149D01*
X5395061Y-15960242D01*
X5393436Y-15969742D01*
X5393436Y-15979394D01*
X5395061Y-15988893D01*
X5398262Y-15997986D01*
X5402935Y-16006419D01*
X5409031Y-16013938D01*
X5416245Y-16020288D01*
X5424474Y-16025368D01*
X5433415Y-16028924D01*
X5442864Y-16030956D01*
X5452516Y-16031413D01*
X5462066Y-16030143D01*
X5471261Y-16027349D01*
X5479897Y-16022980D01*
X5487670Y-16017240D01*
X5494324Y-16010280D01*
X5499709Y-16002304D01*
X5503722Y-15993516D01*
X5506110Y-15984169D01*
X5506974Y-15974568D01*
X5506110Y-15964966D01*
X5503722Y-15955619D01*
X5499709Y-15946831D01*
X5495848Y-15940735D01*
X5491073Y-15929101D01*
X5490311Y-15925241D01*
X5490311Y-13623848D01*
X5491073Y-13619988D01*
X5495848Y-13608405D01*
X5499709Y-13602258D01*
X5503722Y-13593470D01*
X5506110Y-13584123D01*
X5506974Y-13574522D01*
X5506110Y-13564920D01*
X5503722Y-13555573D01*
X5499709Y-13546785D01*
X5495798Y-13540587D01*
X5490972Y-13529005D01*
X5490210Y-13525093D01*
X5490210Y-11109299D01*
X5490972Y-11105438D01*
X5495747Y-11093856D01*
X5499658Y-11087709D01*
X5503621Y-11078921D01*
X5506059Y-11069574D01*
X5506872Y-11059972D01*
X5506059Y-11050371D01*
X5503621Y-11041024D01*
X5502198Y-11037214D01*
X5498795Y-11020450D01*
X5498592Y-11018469D01*
X5498592Y-8620506D01*
X5499608Y-8616035D01*
X5505348Y-8604199D01*
X5509615Y-8597696D01*
X5513628Y-8588959D01*
X5516727Y-8577376D01*
X5521096Y-8566810D01*
X5523331Y-8563508D01*
X5862066Y-8224774D01*
X5867349Y-8218322D01*
X5871057Y-8211362D01*
X5873343Y-8203844D01*
X5874207Y-8195513D01*
X5874207Y-5621731D01*
X5874766Y-5618327D01*
X5876493Y-5615330D01*
X5917895Y-5564581D01*
X5925667Y-5552948D01*
X5931814Y-5540502D01*
X5936284Y-5527395D01*
X5938977Y-5513832D01*
X5939891Y-5500014D01*
X5938977Y-5486146D01*
X5936284Y-5472582D01*
X5931814Y-5459476D01*
X5925667Y-5447030D01*
X5917996Y-5435549D01*
X5908852Y-5425135D01*
X5898438Y-5415991D01*
X5886907Y-5408269D01*
X5874512Y-5402173D01*
X5861405Y-5397703D01*
X5847791Y-5395010D01*
X5833973Y-5394096D01*
X5820156Y-5395010D01*
X5806592Y-5397703D01*
X5793486Y-5402173D01*
X5781040Y-5408269D01*
X5769508Y-5415991D01*
X5759094Y-5425135D01*
X5756402Y-5428183D01*
X5753201Y-5430621D01*
X5749239Y-5431637D01*
X5745226Y-5430977D01*
X5741771Y-5428843D01*
X5739434Y-5425490D01*
X5738622Y-5421477D01*
X5738622Y-4920132D01*
X5739384Y-4916271D01*
X5741619Y-4912969D01*
X5813094Y-4841646D01*
X5816396Y-4839462D01*
X5820257Y-4838700D01*
X6399530Y-4838700D01*
X6407556Y-4837887D01*
X6414820Y-4835702D01*
X6421475Y-4832146D01*
X6427673Y-4827016D01*
X6706920Y-4547565D01*
X6712000Y-4541367D01*
X6715556Y-4534662D01*
X6717792Y-4527448D01*
X6718553Y-4519422D01*
X6718553Y-4095902D01*
X6719265Y-4092143D01*
X6721348Y-4088892D01*
X6724497Y-4086707D01*
X6728206Y-4085793D01*
X6732016Y-4086301D01*
X6744462Y-4090568D01*
X6748322Y-4093006D01*
X7192314Y-4536948D01*
X7198512Y-4542078D01*
X7205218Y-4545634D01*
X7212431Y-4547819D01*
X7220458Y-4548632D01*
X8060791Y-4548632D01*
X8064703Y-4549394D01*
X8068005Y-4551629D01*
X8297976Y-4781600D01*
X8303006Y-4787595D01*
X8366963Y-4851603D01*
X8369401Y-4855464D01*
X8373719Y-4867960D01*
X8374938Y-4874310D01*
X8378139Y-4883404D01*
X8382863Y-4891836D01*
X8388908Y-4899355D01*
X8396173Y-4905705D01*
X8404352Y-4910785D01*
X8413343Y-4914341D01*
X8422741Y-4916373D01*
X8432393Y-4916830D01*
X8441944Y-4915560D01*
X8451189Y-4912766D01*
X8459774Y-4908397D01*
X8467547Y-4902657D01*
X8474252Y-4895697D01*
X8479637Y-4887722D01*
X8483600Y-4878933D01*
X8486038Y-4869586D01*
X8486851Y-4859985D01*
X8486038Y-4850384D01*
X8483600Y-4841036D01*
X8479637Y-4832248D01*
X8474252Y-4824272D01*
X8467547Y-4817313D01*
X8459774Y-4811572D01*
X8451189Y-4807204D01*
X8441944Y-4804410D01*
X8437676Y-4803648D01*
X8425434Y-4799380D01*
X8421522Y-4796993D01*
X8370519Y-4745939D01*
X8365490Y-4739944D01*
X8108645Y-4483100D01*
X8102447Y-4477969D01*
X8095742Y-4474413D01*
X8088528Y-4472228D01*
X8080502Y-4471416D01*
X7240168Y-4471416D01*
X7236256Y-4470654D01*
X7232954Y-4468418D01*
X6802983Y-4038498D01*
X6800596Y-4034586D01*
X6796582Y-4022953D01*
X6793636Y-4011066D01*
X6789623Y-4002278D01*
X6784238Y-3994251D01*
X6777583Y-3987292D01*
X6769811Y-3981551D01*
X6761175Y-3977233D01*
X6751980Y-3974388D01*
X6742430Y-3973169D01*
X6735825Y-3973474D01*
X6731965Y-3972864D01*
X6728663Y-3970883D01*
X6726275Y-3967835D01*
X6725259Y-3964127D01*
X6725666Y-3960266D01*
X6727494Y-3956862D01*
X6732066Y-3951325D01*
X6735622Y-3944670D01*
X6737807Y-3937457D01*
X6738569Y-3929430D01*
X6738569Y-3850487D01*
X6739636Y-3846068D01*
X6745376Y-3834231D01*
X6749643Y-3827729D01*
X6753606Y-3818940D01*
X6756044Y-3809593D01*
X6756857Y-3799992D01*
X6756044Y-3790391D01*
X6753606Y-3781044D01*
X6749643Y-3772255D01*
X6744258Y-3764279D01*
X6737553Y-3757320D01*
X6729780Y-3751579D01*
X6721195Y-3747211D01*
X6711950Y-3744417D01*
X6702399Y-3743147D01*
X6692747Y-3743604D01*
X6683349Y-3745636D01*
X6674358Y-3749192D01*
X6666179Y-3754272D01*
X6658914Y-3760622D01*
X6652869Y-3768140D01*
X6648145Y-3776573D01*
X6644640Y-3786479D01*
X6642353Y-3790391D01*
X6639712Y-3792880D01*
X6636410Y-3794353D01*
X6632803Y-3794506D01*
X6622389Y-3793185D01*
X6612737Y-3793591D01*
X6610908Y-3793998D01*
X6606387Y-3793947D01*
X6602374Y-3791965D01*
X6599580Y-3788460D01*
X6598615Y-3784041D01*
X6598869Y-3778250D01*
X6599631Y-3776065D01*
X6605371Y-3764178D01*
X6609638Y-3757726D01*
X6613601Y-3748938D01*
X6616039Y-3739591D01*
X6616852Y-3729990D01*
X6616039Y-3720388D01*
X6613601Y-3711041D01*
X6609638Y-3702253D01*
X6604253Y-3694277D01*
X6597548Y-3687318D01*
X6589775Y-3681577D01*
X6581190Y-3677208D01*
X6571945Y-3674414D01*
X6562394Y-3673144D01*
X6552742Y-3673601D01*
X6543344Y-3675634D01*
X6534353Y-3679190D01*
X6526174Y-3684270D01*
X6518909Y-3690620D01*
X6512864Y-3698138D01*
X6508140Y-3706571D01*
X6504940Y-3715664D01*
X6503314Y-3725164D01*
X6503314Y-3734815D01*
X6504940Y-3744315D01*
X6508140Y-3753408D01*
X6511442Y-3759250D01*
X6512712Y-3763518D01*
X6512001Y-3767937D01*
X6509512Y-3771646D01*
X6505702Y-3773881D01*
X6501282Y-3774287D01*
X6492392Y-3773170D01*
X6482740Y-3773576D01*
X6473342Y-3775608D01*
X6464350Y-3779215D01*
X6456172Y-3784244D01*
X6448907Y-3790645D01*
X6442862Y-3798163D01*
X6438138Y-3806545D01*
X6434937Y-3815638D01*
X6433312Y-3825189D01*
X6433312Y-3834790D01*
X6434937Y-3844340D01*
X6438138Y-3853434D01*
X6442862Y-3861815D01*
X6444843Y-3864660D01*
X6450330Y-3876040D01*
X6451396Y-3880510D01*
X6451396Y-4379823D01*
X6450584Y-4383684D01*
X6448399Y-4386986D01*
X6276898Y-4558487D01*
X6273596Y-4560671D01*
X6269736Y-4561433D01*
X6073038Y-4561433D01*
X6068872Y-4560570D01*
X6065469Y-4558080D01*
X6063386Y-4554474D01*
X6062878Y-4550257D01*
X6064199Y-4546244D01*
X6074257Y-4535728D01*
X6079642Y-4527702D01*
X6083604Y-4518914D01*
X6086043Y-4509617D01*
X6086856Y-4500016D01*
X6086043Y-4490364D01*
X6083604Y-4481068D01*
X6079642Y-4472279D01*
X6074257Y-4464253D01*
X6067552Y-4457293D01*
X6059779Y-4451553D01*
X6051194Y-4447235D01*
X6041948Y-4444390D01*
X6032398Y-4443171D01*
X6022746Y-4443577D01*
X6013348Y-4445609D01*
X6004356Y-4449216D01*
X6000038Y-4451858D01*
X5997143Y-4453077D01*
X5985865Y-4455871D01*
X5983427Y-4456176D01*
X5528259Y-4456176D01*
X5519928Y-4457344D01*
X5512257Y-4459935D01*
X5505196Y-4463846D01*
X5498642Y-4469333D01*
X4747869Y-5220157D01*
X4742789Y-5226913D01*
X4739182Y-5234127D01*
X4736947Y-5241899D01*
X4736185Y-5250434D01*
X4736185Y-5563412D01*
X4735880Y-5565851D01*
X4733137Y-5576925D01*
X4732172Y-5579414D01*
X4728159Y-5586577D01*
X4724958Y-5595670D01*
X4723333Y-5605170D01*
X4723333Y-5614822D01*
X4724958Y-5624322D01*
X4728159Y-5633415D01*
X4732883Y-5641848D01*
X4738928Y-5649366D01*
X4746193Y-5655716D01*
X4754372Y-5660796D01*
X4763363Y-5664352D01*
X4772761Y-5666384D01*
X4786884Y-5667095D01*
X4790541Y-5669076D01*
X4793132Y-5672378D01*
X4794148Y-5676442D01*
X4793488Y-5680557D01*
X4791202Y-5684062D01*
X4223004Y-6252260D01*
X4217873Y-6258407D01*
X4214317Y-6265113D01*
X4212132Y-6272326D01*
X4211320Y-6280353D01*
X4201414Y-14542668D01*
X4202176Y-14550694D01*
X4204360Y-14557959D01*
X4207916Y-14564613D01*
X4213047Y-14570862D01*
X5128412Y-15486227D01*
X5130596Y-15489529D01*
X5131358Y-15493390D01*
X5131358Y-16129457D01*
X5130342Y-16133927D01*
X5124805Y-16145306D01*
X5122875Y-16148151D01*
X5118150Y-16156533D01*
X5114950Y-16165626D01*
X5113324Y-16175177D01*
X5113324Y-16184778D01*
X5114950Y-16194328D01*
X5118150Y-16203422D01*
X5122875Y-16211804D01*
X5128920Y-16219322D01*
X5136184Y-16225723D01*
X5144363Y-16230752D01*
X5153355Y-16234359D01*
X5162753Y-16236391D01*
G37*
G36*
X4820158Y-16192296D02*
G01*
X4833772Y-16192296D01*
X4847285Y-16190518D01*
X4860442Y-16186912D01*
X4872990Y-16181578D01*
X4884724Y-16174618D01*
X4895443Y-16166185D01*
X4904943Y-16156381D01*
X4913020Y-16145408D01*
X4919573Y-16133419D01*
X4924450Y-16120719D01*
X4927650Y-16107460D01*
X4929022Y-16093897D01*
X4928565Y-16080232D01*
X4926279Y-16066769D01*
X4922215Y-16053765D01*
X4916474Y-16041420D01*
X4909159Y-16029889D01*
X4900371Y-16019475D01*
X4890262Y-16010331D01*
X4878984Y-16002609D01*
X4866843Y-15996462D01*
X4853940Y-15991992D01*
X4840579Y-15989300D01*
X4826965Y-15988385D01*
X4813350Y-15989300D01*
X4799990Y-15991992D01*
X4787138Y-15996462D01*
X4774946Y-16002609D01*
X4763719Y-16010331D01*
X4753610Y-16019475D01*
X4744770Y-16029889D01*
X4737455Y-16041420D01*
X4731715Y-16053765D01*
X4727651Y-16066769D01*
X4725416Y-16080232D01*
X4724958Y-16093897D01*
X4726330Y-16107460D01*
X4729480Y-16120719D01*
X4734356Y-16133419D01*
X4740910Y-16145408D01*
X4749038Y-16156381D01*
X4758486Y-16166185D01*
X4769205Y-16174618D01*
X4780940Y-16181578D01*
X4793488Y-16186912D01*
X4806645Y-16190518D01*
G37*
G36*
X4566158Y-16065347D02*
G01*
X4579772Y-16065347D01*
X4593285Y-16063518D01*
X4606442Y-16059912D01*
X4619040Y-16054578D01*
X4630775Y-16047618D01*
X4641443Y-16039185D01*
X4650943Y-16029381D01*
X4659020Y-16018408D01*
X4665573Y-16006419D01*
X4670501Y-15993719D01*
X4673650Y-15980460D01*
X4675022Y-15966897D01*
X4674565Y-15953232D01*
X4672279Y-15939820D01*
X4668215Y-15926765D01*
X4662474Y-15914420D01*
X4655159Y-15902889D01*
X4646371Y-15892475D01*
X4636262Y-15883331D01*
X4624984Y-15875609D01*
X4612843Y-15869462D01*
X4599940Y-15864992D01*
X4586579Y-15862300D01*
X4572965Y-15861385D01*
X4559350Y-15862300D01*
X4545990Y-15864992D01*
X4533138Y-15869462D01*
X4520946Y-15875609D01*
X4509719Y-15883331D01*
X4499610Y-15892475D01*
X4490770Y-15902889D01*
X4483455Y-15914420D01*
X4477715Y-15926765D01*
X4473651Y-15939820D01*
X4471416Y-15953232D01*
X4470958Y-15966897D01*
X4472330Y-15980460D01*
X4475480Y-15993719D01*
X4480356Y-16006419D01*
X4486910Y-16018408D01*
X4495038Y-16029381D01*
X4504486Y-16039185D01*
X4515205Y-16047618D01*
X4526940Y-16054578D01*
X4539488Y-16059912D01*
X4552645Y-16063518D01*
G37*
G36*
X4820158Y-15938347D02*
G01*
X4833772Y-15938347D01*
X4847285Y-15936518D01*
X4860442Y-15932912D01*
X4872990Y-15927578D01*
X4884724Y-15920618D01*
X4895443Y-15912185D01*
X4904943Y-15902381D01*
X4913020Y-15891408D01*
X4919573Y-15879419D01*
X4924450Y-15866719D01*
X4927650Y-15853460D01*
X4929022Y-15839897D01*
X4928565Y-15826232D01*
X4926279Y-15812820D01*
X4922215Y-15799765D01*
X4916474Y-15787420D01*
X4909159Y-15775940D01*
X4900371Y-15765526D01*
X4890262Y-15756382D01*
X4878984Y-15748660D01*
X4866843Y-15742513D01*
X4853940Y-15737992D01*
X4840579Y-15735300D01*
X4826965Y-15734385D01*
X4813350Y-15735300D01*
X4799990Y-15737992D01*
X4787138Y-15742513D01*
X4774946Y-15748660D01*
X4763719Y-15756382D01*
X4753610Y-15765526D01*
X4744770Y-15775940D01*
X4737455Y-15787420D01*
X4731715Y-15799765D01*
X4727651Y-15812820D01*
X4725416Y-15826232D01*
X4724958Y-15839897D01*
X4726330Y-15853460D01*
X4729480Y-15866719D01*
X4734356Y-15879419D01*
X4740910Y-15891408D01*
X4749038Y-15902381D01*
X4758486Y-15912185D01*
X4769205Y-15920618D01*
X4780940Y-15927578D01*
X4793488Y-15932912D01*
X4806645Y-15936518D01*
G37*
G36*
X4617415Y-15801289D02*
G01*
X4619040Y-15800578D01*
X4630775Y-15793669D01*
X4641443Y-15785185D01*
X4650943Y-15775381D01*
X4659020Y-15764408D01*
X4664760Y-15753943D01*
X4617415Y-15753943D01*
G37*
G36*
X4528515Y-15801289D02*
G01*
X4528515Y-15753943D01*
X4481169Y-15753943D01*
X4486910Y-15764408D01*
X4495038Y-15775381D01*
X4504486Y-15785185D01*
X4515205Y-15793669D01*
X4526940Y-15800578D01*
G37*
G36*
X4820158Y-15684347D02*
G01*
X4833772Y-15684347D01*
X4847285Y-15682518D01*
X4860442Y-15678912D01*
X4873040Y-15673578D01*
X4884775Y-15666669D01*
X4895443Y-15658185D01*
X4904943Y-15648381D01*
X4913020Y-15637408D01*
X4919573Y-15625470D01*
X4924501Y-15612719D01*
X4927650Y-15599460D01*
X4929022Y-15585897D01*
X4928565Y-15572282D01*
X4926279Y-15558820D01*
X4922215Y-15545816D01*
X4916474Y-15533420D01*
X4909159Y-15521940D01*
X4900371Y-15511526D01*
X4890262Y-15502382D01*
X4878984Y-15494660D01*
X4866843Y-15488513D01*
X4853940Y-15484043D01*
X4840579Y-15481300D01*
X4826965Y-15480385D01*
X4813350Y-15481300D01*
X4799990Y-15484043D01*
X4787138Y-15488513D01*
X4774946Y-15494660D01*
X4763719Y-15502382D01*
X4753610Y-15511526D01*
X4744770Y-15521940D01*
X4737455Y-15533420D01*
X4731715Y-15545816D01*
X4727651Y-15558820D01*
X4725416Y-15572282D01*
X4724958Y-15585897D01*
X4726330Y-15599460D01*
X4729480Y-15612719D01*
X4734356Y-15625470D01*
X4740910Y-15637408D01*
X4749038Y-15648381D01*
X4758486Y-15658185D01*
X4769205Y-15666669D01*
X4780940Y-15673578D01*
X4793488Y-15678912D01*
X4806645Y-15682518D01*
G37*
G36*
X4481322Y-15665043D02*
G01*
X4528515Y-15665043D01*
X4528515Y-15617799D01*
X4520946Y-15621660D01*
X4509719Y-15629382D01*
X4499610Y-15638526D01*
X4490770Y-15648940D01*
X4483455Y-15660420D01*
G37*
G36*
X4617415Y-15665043D02*
G01*
X4664659Y-15665043D01*
X4662474Y-15660420D01*
X4655159Y-15648940D01*
X4646371Y-15638526D01*
X4636262Y-15629382D01*
X4624984Y-15621660D01*
X4617415Y-15617799D01*
G37*
G36*
X3933240Y-15582798D02*
G01*
X3952240Y-15582341D01*
X3971137Y-15579953D01*
X3989679Y-15575737D01*
X4007713Y-15569692D01*
X4025087Y-15561818D01*
X4041546Y-15552318D01*
X4056989Y-15541193D01*
X4071264Y-15528645D01*
X4084218Y-15514675D01*
X4095699Y-15499486D01*
X4105656Y-15483281D01*
X4113885Y-15466110D01*
X4120387Y-15448229D01*
X4125112Y-15429788D01*
X4127957Y-15410992D01*
X4128871Y-15391993D01*
X4127957Y-15372943D01*
X4125112Y-15354147D01*
X4120387Y-15335707D01*
X4113885Y-15317825D01*
X4105656Y-15300655D01*
X4095699Y-15284450D01*
X4084218Y-15269260D01*
X4071264Y-15255290D01*
X4056989Y-15242743D01*
X4041546Y-15231618D01*
X4025087Y-15222118D01*
X4007713Y-15214244D01*
X3989679Y-15208199D01*
X3971137Y-15203982D01*
X3952240Y-15201595D01*
X3933240Y-15201138D01*
X3914241Y-15202560D01*
X3895496Y-15205862D01*
X3877208Y-15210993D01*
X3859479Y-15217952D01*
X3842562Y-15226639D01*
X3826560Y-15236951D01*
X3811676Y-15248839D01*
X3798062Y-15262148D01*
X3785819Y-15276728D01*
X3775100Y-15292425D01*
X3766007Y-15309138D01*
X3758590Y-15326664D01*
X3753002Y-15344851D01*
X3749243Y-15363494D01*
X3747312Y-15382443D01*
X3747312Y-15401493D01*
X3749243Y-15420441D01*
X3753002Y-15439085D01*
X3758590Y-15457271D01*
X3766007Y-15474797D01*
X3775100Y-15491510D01*
X3785819Y-15507207D01*
X3798062Y-15521787D01*
X3811676Y-15535097D01*
X3826560Y-15546984D01*
X3842562Y-15557296D01*
X3859479Y-15565983D01*
X3877208Y-15572943D01*
X3895496Y-15578074D01*
X3914241Y-15581376D01*
G37*
G36*
X3933240Y-14198803D02*
G01*
X3952240Y-14198346D01*
X3971137Y-14195958D01*
X3989679Y-14191742D01*
X4007713Y-14185696D01*
X4025087Y-14177822D01*
X4041546Y-14168323D01*
X4056989Y-14157198D01*
X4071264Y-14144650D01*
X4084218Y-14130680D01*
X4095699Y-14115491D01*
X4105656Y-14099286D01*
X4113885Y-14082115D01*
X4120387Y-14064234D01*
X4125112Y-14045793D01*
X4127957Y-14026997D01*
X4128871Y-14007998D01*
X4127957Y-13988948D01*
X4125112Y-13970152D01*
X4120387Y-13951712D01*
X4113885Y-13933830D01*
X4105656Y-13916660D01*
X4095699Y-13900454D01*
X4084218Y-13885265D01*
X4071264Y-13871295D01*
X4056989Y-13858748D01*
X4041546Y-13847622D01*
X4025087Y-13838123D01*
X4007713Y-13830249D01*
X3989679Y-13824204D01*
X3971137Y-13819987D01*
X3952240Y-13817600D01*
X3933240Y-13817142D01*
X3914241Y-13818565D01*
X3895496Y-13821867D01*
X3877208Y-13826998D01*
X3859479Y-13833957D01*
X3842562Y-13842644D01*
X3826560Y-13852956D01*
X3811676Y-13864844D01*
X3798062Y-13878153D01*
X3785819Y-13892733D01*
X3775100Y-13908430D01*
X3766007Y-13925143D01*
X3758590Y-13942669D01*
X3753002Y-13960856D01*
X3749243Y-13979499D01*
X3747312Y-13998448D01*
X3747312Y-14017498D01*
X3749243Y-14036446D01*
X3753002Y-14055090D01*
X3758590Y-14073276D01*
X3766007Y-14090802D01*
X3775100Y-14107515D01*
X3785819Y-14123212D01*
X3798062Y-14137792D01*
X3811676Y-14151101D01*
X3826560Y-14162989D01*
X3842562Y-14173301D01*
X3859479Y-14181988D01*
X3877208Y-14188948D01*
X3895496Y-14194078D01*
X3914241Y-14197380D01*
G37*
G36*
X4572965Y-13919555D02*
G01*
X4586579Y-13918641D01*
X4599940Y-13915898D01*
X4612843Y-13911427D01*
X4624984Y-13905280D01*
X4636262Y-13897559D01*
X4646371Y-13888415D01*
X4655159Y-13878001D01*
X4662525Y-13866520D01*
X4668266Y-13854176D01*
X4672279Y-13841120D01*
X4674565Y-13827658D01*
X4675022Y-13814044D01*
X4673650Y-13800480D01*
X4670501Y-13787221D01*
X4665573Y-13774470D01*
X4659020Y-13762532D01*
X4650943Y-13751560D01*
X4641443Y-13741755D01*
X4630775Y-13733272D01*
X4619040Y-13726363D01*
X4606442Y-13721029D01*
X4593336Y-13717422D01*
X4579823Y-13715593D01*
X4566158Y-13715593D01*
X4552645Y-13717422D01*
X4539488Y-13721029D01*
X4526940Y-13726363D01*
X4515205Y-13733272D01*
X4504486Y-13741755D01*
X4495038Y-13751560D01*
X4486910Y-13762532D01*
X4480356Y-13774470D01*
X4475480Y-13787221D01*
X4472330Y-13800480D01*
X4470958Y-13814044D01*
X4471416Y-13827658D01*
X4473651Y-13841120D01*
X4477715Y-13854176D01*
X4483455Y-13866520D01*
X4490770Y-13878001D01*
X4499610Y-13888415D01*
X4509719Y-13897559D01*
X4520946Y-13905280D01*
X4533138Y-13911427D01*
X4545990Y-13915898D01*
X4559350Y-13918641D01*
G37*
G36*
X4820158Y-13792301D02*
G01*
X4833772Y-13792301D01*
X4847285Y-13790523D01*
X4860442Y-13786916D01*
X4872990Y-13781582D01*
X4884724Y-13774623D01*
X4895443Y-13766190D01*
X4904943Y-13756386D01*
X4913020Y-13745413D01*
X4919573Y-13733424D01*
X4924450Y-13720724D01*
X4927650Y-13707465D01*
X4929022Y-13693901D01*
X4928565Y-13680236D01*
X4926279Y-13666774D01*
X4922215Y-13653769D01*
X4916474Y-13641425D01*
X4909159Y-13629894D01*
X4900371Y-13619480D01*
X4890262Y-13610336D01*
X4878984Y-13602614D01*
X4866843Y-13596467D01*
X4853940Y-13591997D01*
X4840579Y-13589304D01*
X4826965Y-13588390D01*
X4813350Y-13589304D01*
X4799990Y-13591997D01*
X4787138Y-13596467D01*
X4774946Y-13602614D01*
X4763719Y-13610336D01*
X4753610Y-13619480D01*
X4744770Y-13629894D01*
X4737455Y-13641425D01*
X4731715Y-13653769D01*
X4727651Y-13666774D01*
X4725416Y-13680236D01*
X4724958Y-13693901D01*
X4726330Y-13707465D01*
X4729480Y-13720724D01*
X4734356Y-13733424D01*
X4740910Y-13745413D01*
X4749038Y-13756386D01*
X4758486Y-13766190D01*
X4769205Y-13774623D01*
X4780940Y-13781582D01*
X4793488Y-13786916D01*
X4806645Y-13790523D01*
G37*
G36*
X4566158Y-13665352D02*
G01*
X4579772Y-13665352D01*
X4593285Y-13663523D01*
X4606442Y-13659916D01*
X4619040Y-13654582D01*
X4630775Y-13647623D01*
X4641443Y-13639190D01*
X4650943Y-13629386D01*
X4659020Y-13618413D01*
X4665573Y-13606424D01*
X4670501Y-13593724D01*
X4673650Y-13580465D01*
X4675022Y-13566901D01*
X4674565Y-13553236D01*
X4672279Y-13539825D01*
X4668215Y-13526769D01*
X4662474Y-13514425D01*
X4655159Y-13502894D01*
X4646371Y-13492480D01*
X4636262Y-13483336D01*
X4624984Y-13475614D01*
X4612843Y-13469467D01*
X4599940Y-13464997D01*
X4586579Y-13462304D01*
X4572965Y-13461390D01*
X4559350Y-13462304D01*
X4545990Y-13464997D01*
X4533138Y-13469467D01*
X4520946Y-13475614D01*
X4509719Y-13483336D01*
X4499610Y-13492480D01*
X4490770Y-13502894D01*
X4483455Y-13514425D01*
X4477715Y-13526769D01*
X4473651Y-13539825D01*
X4471416Y-13553236D01*
X4470958Y-13566901D01*
X4472330Y-13580465D01*
X4475480Y-13593724D01*
X4480356Y-13606424D01*
X4486910Y-13618413D01*
X4495038Y-13629386D01*
X4504486Y-13639190D01*
X4515205Y-13647623D01*
X4526940Y-13654582D01*
X4539488Y-13659916D01*
X4552645Y-13663523D01*
G37*
G36*
X4820158Y-13538352D02*
G01*
X4833772Y-13538352D01*
X4847285Y-13536523D01*
X4860442Y-13532916D01*
X4872990Y-13527582D01*
X4884724Y-13520623D01*
X4895443Y-13512190D01*
X4904943Y-13502386D01*
X4913020Y-13491413D01*
X4919573Y-13479424D01*
X4924450Y-13466724D01*
X4927650Y-13453465D01*
X4929022Y-13439901D01*
X4928565Y-13426236D01*
X4926279Y-13412825D01*
X4922215Y-13399769D01*
X4916474Y-13387425D01*
X4909159Y-13375944D01*
X4900371Y-13365530D01*
X4890262Y-13356386D01*
X4878984Y-13348665D01*
X4866843Y-13342518D01*
X4853940Y-13337997D01*
X4840579Y-13335304D01*
X4826965Y-13334390D01*
X4813350Y-13335304D01*
X4799990Y-13337997D01*
X4787138Y-13342518D01*
X4774946Y-13348665D01*
X4763719Y-13356386D01*
X4753610Y-13365530D01*
X4744770Y-13375944D01*
X4737455Y-13387425D01*
X4731715Y-13399769D01*
X4727651Y-13412825D01*
X4725416Y-13426236D01*
X4724958Y-13439901D01*
X4726330Y-13453465D01*
X4729480Y-13466724D01*
X4734356Y-13479424D01*
X4740910Y-13491413D01*
X4749038Y-13502386D01*
X4758486Y-13512190D01*
X4769205Y-13520623D01*
X4780940Y-13527582D01*
X4793488Y-13532916D01*
X4806645Y-13536523D01*
G37*
G36*
X4617415Y-13401294D02*
G01*
X4619040Y-13400582D01*
X4630775Y-13393674D01*
X4641443Y-13385190D01*
X4650943Y-13375386D01*
X4659020Y-13364413D01*
X4664760Y-13353948D01*
X4617415Y-13353948D01*
G37*
G36*
X4528515Y-13401294D02*
G01*
X4528515Y-13353948D01*
X4481169Y-13353948D01*
X4486910Y-13364413D01*
X4495038Y-13375386D01*
X4504486Y-13385190D01*
X4515205Y-13393674D01*
X4526940Y-13400582D01*
G37*
G36*
X4820158Y-13284352D02*
G01*
X4833772Y-13284352D01*
X4847285Y-13282523D01*
X4860442Y-13278916D01*
X4873040Y-13273582D01*
X4884775Y-13266674D01*
X4895443Y-13258190D01*
X4904943Y-13248386D01*
X4913020Y-13237413D01*
X4919573Y-13225475D01*
X4924501Y-13212724D01*
X4927650Y-13199465D01*
X4929022Y-13185901D01*
X4928565Y-13172287D01*
X4926279Y-13158825D01*
X4922215Y-13145820D01*
X4916474Y-13133425D01*
X4909159Y-13121944D01*
X4900371Y-13111530D01*
X4890262Y-13102386D01*
X4878984Y-13094665D01*
X4866843Y-13088518D01*
X4853940Y-13084048D01*
X4840579Y-13081304D01*
X4826965Y-13080390D01*
X4813350Y-13081304D01*
X4799990Y-13084048D01*
X4787138Y-13088518D01*
X4774946Y-13094665D01*
X4763719Y-13102386D01*
X4753610Y-13111530D01*
X4744770Y-13121944D01*
X4737455Y-13133425D01*
X4731715Y-13145820D01*
X4727651Y-13158825D01*
X4725416Y-13172287D01*
X4724958Y-13185901D01*
X4726330Y-13199465D01*
X4729480Y-13212724D01*
X4734356Y-13225475D01*
X4740910Y-13237413D01*
X4749038Y-13248386D01*
X4758486Y-13258190D01*
X4769205Y-13266674D01*
X4780940Y-13273582D01*
X4793488Y-13278916D01*
X4806645Y-13282523D01*
G37*
G36*
X4481322Y-13265048D02*
G01*
X4528515Y-13265048D01*
X4528515Y-13217804D01*
X4520946Y-13221665D01*
X4509719Y-13229386D01*
X4499610Y-13238530D01*
X4490770Y-13248944D01*
X4483455Y-13260425D01*
G37*
G36*
X4617415Y-13265048D02*
G01*
X4664659Y-13265048D01*
X4662474Y-13260425D01*
X4655159Y-13248944D01*
X4646371Y-13238530D01*
X4636262Y-13229386D01*
X4624984Y-13221665D01*
X4617415Y-13217804D01*
G37*
G36*
X3933240Y-13182803D02*
G01*
X3952240Y-13182346D01*
X3971137Y-13179958D01*
X3989679Y-13175742D01*
X4007713Y-13169696D01*
X4025087Y-13161822D01*
X4041546Y-13152323D01*
X4056989Y-13141198D01*
X4071264Y-13128650D01*
X4084218Y-13114680D01*
X4095699Y-13099491D01*
X4105656Y-13083286D01*
X4113885Y-13066115D01*
X4120387Y-13048234D01*
X4125112Y-13029793D01*
X4127957Y-13010997D01*
X4128871Y-12991998D01*
X4127957Y-12972948D01*
X4125112Y-12954152D01*
X4120387Y-12935712D01*
X4113885Y-12917830D01*
X4105656Y-12900660D01*
X4095699Y-12884454D01*
X4084218Y-12869265D01*
X4071264Y-12855295D01*
X4056989Y-12842748D01*
X4041546Y-12831622D01*
X4025087Y-12822123D01*
X4007713Y-12814249D01*
X3989679Y-12808204D01*
X3971137Y-12803987D01*
X3952240Y-12801600D01*
X3933240Y-12801142D01*
X3914241Y-12802565D01*
X3895496Y-12805867D01*
X3877208Y-12810998D01*
X3859479Y-12817957D01*
X3842562Y-12826644D01*
X3826560Y-12836956D01*
X3811676Y-12848844D01*
X3798062Y-12862153D01*
X3785819Y-12876733D01*
X3775100Y-12892430D01*
X3766007Y-12909143D01*
X3758590Y-12926669D01*
X3753002Y-12944856D01*
X3749243Y-12963499D01*
X3747312Y-12982448D01*
X3747312Y-13001498D01*
X3749243Y-13020446D01*
X3753002Y-13039090D01*
X3758590Y-13057276D01*
X3766007Y-13074802D01*
X3775100Y-13091515D01*
X3785819Y-13107212D01*
X3798062Y-13121792D01*
X3811676Y-13135101D01*
X3826560Y-13146989D01*
X3842562Y-13157301D01*
X3859479Y-13165988D01*
X3877208Y-13172948D01*
X3895496Y-13178078D01*
X3914241Y-13181380D01*
G37*
G36*
X3933240Y-11698833D02*
G01*
X3952240Y-11698325D01*
X3971137Y-11695988D01*
X3989679Y-11691721D01*
X4007713Y-11685676D01*
X4025087Y-11677853D01*
X4041546Y-11668353D01*
X4056989Y-11657228D01*
X4071264Y-11644630D01*
X4084218Y-11630660D01*
X4095699Y-11615521D01*
X4105656Y-11599265D01*
X4113885Y-11582146D01*
X4120387Y-11564264D01*
X4125112Y-11545824D01*
X4127957Y-11526977D01*
X4128871Y-11507978D01*
X4127957Y-11488978D01*
X4125112Y-11470132D01*
X4120387Y-11451691D01*
X4113885Y-11433810D01*
X4105656Y-11416690D01*
X4095699Y-11400434D01*
X4084218Y-11385296D01*
X4071264Y-11371326D01*
X4056989Y-11358727D01*
X4041546Y-11347602D01*
X4025087Y-11338102D01*
X4007713Y-11330279D01*
X3989679Y-11324234D01*
X3971137Y-11319967D01*
X3952240Y-11317630D01*
X3933240Y-11317122D01*
X3914241Y-11318544D01*
X3895496Y-11321846D01*
X3877208Y-11327028D01*
X3859479Y-11333988D01*
X3842562Y-11342674D01*
X3826560Y-11352987D01*
X3811676Y-11364823D01*
X3798062Y-11378133D01*
X3785819Y-11392712D01*
X3775100Y-11408460D01*
X3766007Y-11425174D01*
X3758590Y-11442700D01*
X3753002Y-11460886D01*
X3749243Y-11479530D01*
X3747312Y-11498478D01*
X3747312Y-11517477D01*
X3749243Y-11536426D01*
X3753002Y-11555069D01*
X3758590Y-11573256D01*
X3766007Y-11590782D01*
X3775100Y-11607495D01*
X3785819Y-11623243D01*
X3798062Y-11637822D01*
X3811676Y-11651132D01*
X3826560Y-11662968D01*
X3842562Y-11673281D01*
X3859479Y-11681968D01*
X3877208Y-11688927D01*
X3895496Y-11694109D01*
X3914241Y-11697411D01*
G37*
G36*
X4572965Y-11419535D02*
G01*
X4586579Y-11418620D01*
X4599940Y-11415928D01*
X4612843Y-11411458D01*
X4624984Y-11405311D01*
X4636262Y-11397589D01*
X4646371Y-11388445D01*
X4655159Y-11378031D01*
X4662525Y-11366550D01*
X4668266Y-11354155D01*
X4672279Y-11341150D01*
X4674565Y-11327688D01*
X4675022Y-11314074D01*
X4673650Y-11300510D01*
X4670501Y-11287201D01*
X4665573Y-11274501D01*
X4659020Y-11262512D01*
X4650943Y-11251539D01*
X4641443Y-11241735D01*
X4630775Y-11233302D01*
X4619040Y-11226342D01*
X4606442Y-11221008D01*
X4593336Y-11217402D01*
X4579823Y-11215624D01*
X4566158Y-11215624D01*
X4552645Y-11217402D01*
X4539488Y-11221008D01*
X4526940Y-11226342D01*
X4515205Y-11233302D01*
X4504486Y-11241735D01*
X4495038Y-11251539D01*
X4486910Y-11262512D01*
X4480356Y-11274501D01*
X4475480Y-11287201D01*
X4472330Y-11300510D01*
X4470958Y-11314074D01*
X4471416Y-11327688D01*
X4473651Y-11341150D01*
X4477715Y-11354155D01*
X4483455Y-11366550D01*
X4490770Y-11378031D01*
X4499610Y-11388445D01*
X4509719Y-11397589D01*
X4520946Y-11405311D01*
X4533138Y-11411458D01*
X4545990Y-11415928D01*
X4559350Y-11418620D01*
G37*
G36*
X4820158Y-11292332D02*
G01*
X4833772Y-11292332D01*
X4847285Y-11290503D01*
X4860442Y-11286896D01*
X4872990Y-11281562D01*
X4884724Y-11274653D01*
X4895443Y-11266170D01*
X4904943Y-11256365D01*
X4913020Y-11245392D01*
X4919573Y-11233454D01*
X4924450Y-11220704D01*
X4927650Y-11207445D01*
X4929022Y-11193881D01*
X4928565Y-11180267D01*
X4926279Y-11166805D01*
X4922215Y-11153800D01*
X4916474Y-11141405D01*
X4909159Y-11129924D01*
X4900371Y-11119510D01*
X4890262Y-11110366D01*
X4878984Y-11102644D01*
X4866843Y-11096498D01*
X4853940Y-11092027D01*
X4840579Y-11089284D01*
X4826965Y-11088370D01*
X4813350Y-11089284D01*
X4799990Y-11092027D01*
X4787138Y-11096498D01*
X4774946Y-11102644D01*
X4763719Y-11110366D01*
X4753610Y-11119510D01*
X4744770Y-11129924D01*
X4737455Y-11141405D01*
X4731715Y-11153800D01*
X4727651Y-11166805D01*
X4725416Y-11180267D01*
X4724958Y-11193881D01*
X4726330Y-11207445D01*
X4729480Y-11220704D01*
X4734356Y-11233454D01*
X4740910Y-11245392D01*
X4749038Y-11256365D01*
X4758486Y-11266170D01*
X4769205Y-11274653D01*
X4780940Y-11281562D01*
X4793488Y-11286896D01*
X4806645Y-11290503D01*
G37*
G36*
X4566158Y-11165332D02*
G01*
X4579772Y-11165332D01*
X4593285Y-11163503D01*
X4606442Y-11159896D01*
X4619040Y-11154613D01*
X4630775Y-11147653D01*
X4641443Y-11139170D01*
X4650943Y-11129365D01*
X4659020Y-11118392D01*
X4665573Y-11106454D01*
X4670501Y-11093704D01*
X4673650Y-11080445D01*
X4675022Y-11066881D01*
X4674565Y-11053267D01*
X4672279Y-11039805D01*
X4668215Y-11026800D01*
X4662474Y-11014405D01*
X4655159Y-11002924D01*
X4646371Y-10992510D01*
X4636262Y-10983366D01*
X4624984Y-10975644D01*
X4612843Y-10969498D01*
X4599940Y-10965027D01*
X4586579Y-10962284D01*
X4572965Y-10961370D01*
X4559350Y-10962284D01*
X4545990Y-10965027D01*
X4533138Y-10969498D01*
X4520946Y-10975644D01*
X4509719Y-10983366D01*
X4499610Y-10992510D01*
X4490770Y-11002924D01*
X4483455Y-11014405D01*
X4477715Y-11026800D01*
X4473651Y-11039805D01*
X4471416Y-11053267D01*
X4470958Y-11066881D01*
X4472330Y-11080445D01*
X4475480Y-11093704D01*
X4480356Y-11106454D01*
X4486910Y-11118392D01*
X4495038Y-11129365D01*
X4504486Y-11139170D01*
X4515205Y-11147653D01*
X4526940Y-11154613D01*
X4539488Y-11159896D01*
X4552645Y-11163503D01*
G37*
G36*
X4820158Y-11038332D02*
G01*
X4833772Y-11038332D01*
X4847285Y-11036503D01*
X4860442Y-11032896D01*
X4872990Y-11027613D01*
X4884724Y-11020653D01*
X4895443Y-11012170D01*
X4904943Y-11002416D01*
X4913020Y-10991392D01*
X4919573Y-10979454D01*
X4924450Y-10966704D01*
X4927650Y-10953445D01*
X4929022Y-10939881D01*
X4928565Y-10926267D01*
X4926279Y-10912805D01*
X4922215Y-10899800D01*
X4916474Y-10887405D01*
X4909159Y-10875924D01*
X4900371Y-10865510D01*
X4890262Y-10856366D01*
X4878984Y-10848644D01*
X4866843Y-10842498D01*
X4853940Y-10838027D01*
X4840579Y-10835284D01*
X4826965Y-10834420D01*
X4813350Y-10835284D01*
X4799990Y-10838027D01*
X4787138Y-10842498D01*
X4774946Y-10848644D01*
X4763719Y-10856366D01*
X4753610Y-10865510D01*
X4744770Y-10875924D01*
X4737455Y-10887405D01*
X4731715Y-10899800D01*
X4727651Y-10912805D01*
X4725416Y-10926267D01*
X4724958Y-10939881D01*
X4726330Y-10953445D01*
X4729480Y-10966704D01*
X4734356Y-10979454D01*
X4740910Y-10991392D01*
X4749038Y-11002416D01*
X4758486Y-11012170D01*
X4769205Y-11020653D01*
X4780940Y-11027613D01*
X4793488Y-11032896D01*
X4806645Y-11036503D01*
G37*
G36*
X4617415Y-10901273D02*
G01*
X4619040Y-10900613D01*
X4630775Y-10893653D01*
X4641443Y-10885220D01*
X4650943Y-10875416D01*
X4659020Y-10864443D01*
X4664760Y-10853928D01*
X4617415Y-10853928D01*
G37*
G36*
X4528515Y-10901273D02*
G01*
X4528515Y-10853928D01*
X4481169Y-10853928D01*
X4486910Y-10864443D01*
X4495038Y-10875416D01*
X4504486Y-10885220D01*
X4515205Y-10893653D01*
X4526940Y-10900613D01*
G37*
G36*
X4820158Y-10784332D02*
G01*
X4833772Y-10784332D01*
X4847285Y-10782554D01*
X4860442Y-10778947D01*
X4873040Y-10773613D01*
X4884775Y-10766653D01*
X4895443Y-10758220D01*
X4904943Y-10748416D01*
X4913020Y-10737443D01*
X4919573Y-10725454D01*
X4924501Y-10712754D01*
X4927650Y-10699496D01*
X4929022Y-10685881D01*
X4928565Y-10672267D01*
X4926279Y-10658805D01*
X4922215Y-10645800D01*
X4916474Y-10633405D01*
X4909159Y-10621924D01*
X4900371Y-10611510D01*
X4890262Y-10602366D01*
X4878984Y-10594644D01*
X4866843Y-10588498D01*
X4853940Y-10584027D01*
X4840579Y-10581335D01*
X4826965Y-10580420D01*
X4813350Y-10581335D01*
X4799990Y-10584027D01*
X4787138Y-10588498D01*
X4774946Y-10594644D01*
X4763719Y-10602366D01*
X4753610Y-10611510D01*
X4744770Y-10621924D01*
X4737455Y-10633405D01*
X4731715Y-10645800D01*
X4727651Y-10658805D01*
X4725416Y-10672267D01*
X4724958Y-10685881D01*
X4726330Y-10699496D01*
X4729480Y-10712754D01*
X4734356Y-10725454D01*
X4740910Y-10737443D01*
X4749038Y-10748416D01*
X4758486Y-10758220D01*
X4769205Y-10766653D01*
X4780940Y-10773613D01*
X4793488Y-10778947D01*
X4806645Y-10782554D01*
G37*
G36*
X4481322Y-10765028D02*
G01*
X4528515Y-10765028D01*
X4528515Y-10717834D01*
X4520946Y-10721644D01*
X4509719Y-10729366D01*
X4499610Y-10738510D01*
X4490770Y-10748924D01*
X4483455Y-10760405D01*
G37*
G36*
X4617415Y-10765028D02*
G01*
X4664659Y-10765028D01*
X4662474Y-10760405D01*
X4655159Y-10748924D01*
X4646371Y-10738510D01*
X4636262Y-10729366D01*
X4624984Y-10721644D01*
X4617415Y-10717834D01*
G37*
G36*
X7240574Y-10685627D02*
G01*
X7259421Y-10685627D01*
X7278166Y-10683748D01*
X7296607Y-10679938D01*
X7314539Y-10674299D01*
X7331862Y-10666882D01*
X7348321Y-10657738D01*
X7363764Y-10646968D01*
X7378090Y-10634726D01*
X7391044Y-10621060D01*
X7402575Y-10606176D01*
X7412532Y-10590174D01*
X7420813Y-10573308D01*
X7427366Y-10555630D01*
X7432090Y-10537393D01*
X7434935Y-10518800D01*
X7435900Y-10500004D01*
X7434935Y-10481157D01*
X7432090Y-10462564D01*
X7427366Y-10444327D01*
X7420813Y-10426649D01*
X7412532Y-10409783D01*
X7402575Y-10393781D01*
X7391044Y-10378897D01*
X7378090Y-10365232D01*
X7363764Y-10352989D01*
X7348321Y-10342219D01*
X7331862Y-10333075D01*
X7314539Y-10325658D01*
X7296607Y-10320020D01*
X7278166Y-10316210D01*
X7259421Y-10314330D01*
X7240574Y-10314330D01*
X7221829Y-10316210D01*
X7203389Y-10320020D01*
X7185456Y-10325658D01*
X7168134Y-10333075D01*
X7151674Y-10342219D01*
X7136231Y-10352989D01*
X7121906Y-10365232D01*
X7108952Y-10378897D01*
X7097420Y-10393781D01*
X7087463Y-10409783D01*
X7079183Y-10426649D01*
X7072630Y-10444327D01*
X7067905Y-10462564D01*
X7065060Y-10481157D01*
X7064095Y-10500004D01*
X7065060Y-10518800D01*
X7067905Y-10537393D01*
X7072630Y-10555630D01*
X7079183Y-10573308D01*
X7087463Y-10590174D01*
X7097420Y-10606176D01*
X7108952Y-10621060D01*
X7121906Y-10634726D01*
X7136231Y-10646968D01*
X7151674Y-10657738D01*
X7168134Y-10666882D01*
X7185456Y-10674299D01*
X7203389Y-10679938D01*
X7221829Y-10683748D01*
G37*
G36*
X3933240Y-10682833D02*
G01*
X3952240Y-10682325D01*
X3971137Y-10679988D01*
X3989679Y-10675721D01*
X4007713Y-10669676D01*
X4025087Y-10661853D01*
X4041546Y-10652353D01*
X4056989Y-10641228D01*
X4071264Y-10628630D01*
X4084218Y-10614660D01*
X4095699Y-10599521D01*
X4105656Y-10583265D01*
X4113885Y-10566146D01*
X4120387Y-10548264D01*
X4125112Y-10529824D01*
X4127957Y-10510977D01*
X4128871Y-10491978D01*
X4127957Y-10472978D01*
X4125112Y-10454132D01*
X4120387Y-10435691D01*
X4113885Y-10417810D01*
X4105656Y-10400690D01*
X4095699Y-10384434D01*
X4084218Y-10369296D01*
X4071264Y-10355326D01*
X4056989Y-10342727D01*
X4041546Y-10331602D01*
X4025087Y-10322102D01*
X4007713Y-10314279D01*
X3989679Y-10308234D01*
X3971137Y-10303967D01*
X3952240Y-10301630D01*
X3933240Y-10301122D01*
X3914241Y-10302544D01*
X3895496Y-10305846D01*
X3877208Y-10311028D01*
X3859479Y-10317988D01*
X3842562Y-10326674D01*
X3826560Y-10336987D01*
X3811676Y-10348823D01*
X3798062Y-10362133D01*
X3785819Y-10376712D01*
X3775100Y-10392460D01*
X3766007Y-10409174D01*
X3758590Y-10426700D01*
X3753002Y-10444886D01*
X3749243Y-10463530D01*
X3747312Y-10482478D01*
X3747312Y-10501477D01*
X3749243Y-10520426D01*
X3753002Y-10539069D01*
X3758590Y-10557256D01*
X3766007Y-10574782D01*
X3775100Y-10591495D01*
X3785819Y-10607243D01*
X3798062Y-10621822D01*
X3811676Y-10635132D01*
X3826560Y-10646968D01*
X3842562Y-10657281D01*
X3859479Y-10665968D01*
X3877208Y-10672927D01*
X3895496Y-10678109D01*
X3914241Y-10681411D01*
G37*
G36*
X10570006Y-10310876D02*
G01*
X10586872Y-10309961D01*
X10603585Y-10307116D01*
X10619841Y-10302443D01*
X10635437Y-10295940D01*
X10650270Y-10287762D01*
X10664088Y-10277957D01*
X10676686Y-10266680D01*
X10687964Y-10254081D01*
X10697768Y-10240264D01*
X10705947Y-10225481D01*
X10712399Y-10209834D01*
X10717072Y-10193578D01*
X10719917Y-10176916D01*
X10720882Y-10160000D01*
X10719917Y-10143083D01*
X10717072Y-10126421D01*
X10712399Y-10110165D01*
X10705947Y-10094518D01*
X10697768Y-10079736D01*
X10687964Y-10065918D01*
X10676686Y-10053320D01*
X10664088Y-10042042D01*
X10650270Y-10032238D01*
X10635437Y-10024059D01*
X10619841Y-10017556D01*
X10603585Y-10012883D01*
X10586872Y-10010038D01*
X10570006Y-10009124D01*
X10553090Y-10010038D01*
X10536428Y-10012883D01*
X10520172Y-10017556D01*
X10504525Y-10024059D01*
X10489692Y-10032238D01*
X10475925Y-10042042D01*
X10463276Y-10053320D01*
X10451998Y-10065918D01*
X10442244Y-10079736D01*
X10434015Y-10094518D01*
X10427563Y-10110165D01*
X10422890Y-10126421D01*
X10420045Y-10143083D01*
X10419080Y-10160000D01*
X10420045Y-10176916D01*
X10422890Y-10193578D01*
X10427563Y-10209834D01*
X10434015Y-10225481D01*
X10442244Y-10240264D01*
X10451998Y-10254081D01*
X10463276Y-10266680D01*
X10475925Y-10277957D01*
X10489692Y-10287762D01*
X10504525Y-10295940D01*
X10520172Y-10302443D01*
X10536428Y-10307116D01*
X10553090Y-10309961D01*
G37*
G36*
X9838842Y-10294061D02*
G01*
X9850272Y-10287762D01*
X9864039Y-10277957D01*
X9876688Y-10266680D01*
X9887966Y-10254081D01*
X9897770Y-10240264D01*
X9904069Y-10228834D01*
X9838842Y-10228834D01*
G37*
G36*
X9701123Y-10294061D02*
G01*
X9701123Y-10228834D01*
X9635896Y-10228834D01*
X9642195Y-10240264D01*
X9652000Y-10254081D01*
X9663277Y-10266680D01*
X9675926Y-10277957D01*
X9689693Y-10287762D01*
G37*
G36*
X9635896Y-10091166D02*
G01*
X9701123Y-10091166D01*
X9701123Y-10025938D01*
X9689693Y-10032238D01*
X9675926Y-10042042D01*
X9663277Y-10053320D01*
X9652000Y-10065918D01*
X9642195Y-10079736D01*
G37*
G36*
X9838842Y-10091166D02*
G01*
X9904069Y-10091166D01*
X9897770Y-10079736D01*
X9887966Y-10065918D01*
X9876688Y-10053320D01*
X9864039Y-10042042D01*
X9850272Y-10032238D01*
X9838842Y-10025938D01*
G37*
G36*
X3933240Y-9198813D02*
G01*
X3952240Y-9198356D01*
X3971137Y-9195968D01*
X3989679Y-9191752D01*
X4007713Y-9185706D01*
X4025087Y-9177832D01*
X4041546Y-9168333D01*
X4056989Y-9157208D01*
X4071264Y-9144660D01*
X4084218Y-9130690D01*
X4095699Y-9115501D01*
X4105656Y-9099296D01*
X4113885Y-9082125D01*
X4120387Y-9064244D01*
X4125112Y-9045803D01*
X4127957Y-9027007D01*
X4128871Y-9008008D01*
X4127957Y-8988958D01*
X4125112Y-8970162D01*
X4120387Y-8951722D01*
X4113885Y-8933840D01*
X4105656Y-8916670D01*
X4095699Y-8900464D01*
X4084218Y-8885275D01*
X4071264Y-8871305D01*
X4056989Y-8858758D01*
X4041546Y-8847632D01*
X4025087Y-8838133D01*
X4007713Y-8830259D01*
X3989679Y-8824214D01*
X3971137Y-8819997D01*
X3952240Y-8817610D01*
X3933240Y-8817152D01*
X3914241Y-8818575D01*
X3895496Y-8821877D01*
X3877208Y-8827008D01*
X3859479Y-8833967D01*
X3842562Y-8842654D01*
X3826560Y-8852966D01*
X3811676Y-8864854D01*
X3798062Y-8878163D01*
X3785819Y-8892743D01*
X3775100Y-8908440D01*
X3766007Y-8925153D01*
X3758590Y-8942679D01*
X3753002Y-8960866D01*
X3749243Y-8979509D01*
X3747312Y-8998458D01*
X3747312Y-9017508D01*
X3749243Y-9036456D01*
X3753002Y-9055100D01*
X3758590Y-9073286D01*
X3766007Y-9090812D01*
X3775100Y-9107525D01*
X3785819Y-9123222D01*
X3798062Y-9137802D01*
X3811676Y-9151112D01*
X3826560Y-9162999D01*
X3842562Y-9173311D01*
X3859479Y-9181998D01*
X3877208Y-9188958D01*
X3895496Y-9194088D01*
X3914241Y-9197390D01*
G37*
G36*
X4572965Y-8919565D02*
G01*
X4586579Y-8918651D01*
X4599940Y-8915908D01*
X4612843Y-8911437D01*
X4624984Y-8905290D01*
X4636262Y-8897569D01*
X4646371Y-8888425D01*
X4655159Y-8878011D01*
X4662525Y-8866530D01*
X4668266Y-8854186D01*
X4672279Y-8841130D01*
X4674565Y-8827668D01*
X4675022Y-8814054D01*
X4673650Y-8800490D01*
X4670501Y-8787231D01*
X4665573Y-8774480D01*
X4659020Y-8762542D01*
X4650943Y-8751570D01*
X4641443Y-8741765D01*
X4630775Y-8733282D01*
X4619040Y-8726373D01*
X4606442Y-8721039D01*
X4593336Y-8717432D01*
X4579823Y-8715603D01*
X4566158Y-8715603D01*
X4552645Y-8717432D01*
X4539488Y-8721039D01*
X4526940Y-8726373D01*
X4515205Y-8733282D01*
X4504486Y-8741765D01*
X4495038Y-8751570D01*
X4486910Y-8762542D01*
X4480356Y-8774480D01*
X4475480Y-8787231D01*
X4472330Y-8800490D01*
X4470958Y-8814054D01*
X4471416Y-8827668D01*
X4473651Y-8841130D01*
X4477715Y-8854186D01*
X4483455Y-8866530D01*
X4490770Y-8878011D01*
X4499610Y-8888425D01*
X4509719Y-8897569D01*
X4520946Y-8905290D01*
X4533138Y-8911437D01*
X4545990Y-8915908D01*
X4559350Y-8918651D01*
G37*
G36*
X4820158Y-8792311D02*
G01*
X4833772Y-8792311D01*
X4847285Y-8790533D01*
X4860442Y-8786926D01*
X4872990Y-8781592D01*
X4884724Y-8774633D01*
X4895443Y-8766200D01*
X4904943Y-8756396D01*
X4913020Y-8745423D01*
X4919573Y-8733434D01*
X4924450Y-8720734D01*
X4927650Y-8707475D01*
X4929022Y-8693912D01*
X4928565Y-8680246D01*
X4926279Y-8666784D01*
X4922215Y-8653780D01*
X4916474Y-8641435D01*
X4909159Y-8629904D01*
X4900371Y-8619490D01*
X4890262Y-8610346D01*
X4878984Y-8602624D01*
X4866843Y-8596477D01*
X4853940Y-8592007D01*
X4840579Y-8589314D01*
X4826965Y-8588400D01*
X4813350Y-8589314D01*
X4799990Y-8592007D01*
X4787138Y-8596477D01*
X4774946Y-8602624D01*
X4763719Y-8610346D01*
X4753610Y-8619490D01*
X4744770Y-8629904D01*
X4737455Y-8641435D01*
X4731715Y-8653780D01*
X4727651Y-8666784D01*
X4725416Y-8680246D01*
X4724958Y-8693912D01*
X4726330Y-8707475D01*
X4729480Y-8720734D01*
X4734356Y-8733434D01*
X4740910Y-8745423D01*
X4749038Y-8756396D01*
X4758486Y-8766200D01*
X4769205Y-8774633D01*
X4780940Y-8781592D01*
X4793488Y-8786926D01*
X4806645Y-8790533D01*
G37*
G36*
X4566158Y-8665362D02*
G01*
X4579772Y-8665362D01*
X4593285Y-8663533D01*
X4606442Y-8659926D01*
X4619040Y-8654592D01*
X4630775Y-8647633D01*
X4641443Y-8639200D01*
X4650943Y-8629396D01*
X4659020Y-8618423D01*
X4665573Y-8606434D01*
X4670501Y-8593734D01*
X4673650Y-8580475D01*
X4675022Y-8566912D01*
X4674565Y-8553246D01*
X4672279Y-8539835D01*
X4668215Y-8526780D01*
X4662474Y-8514435D01*
X4655159Y-8502904D01*
X4646371Y-8492490D01*
X4636262Y-8483346D01*
X4624984Y-8475624D01*
X4612843Y-8469477D01*
X4599940Y-8465007D01*
X4586579Y-8462314D01*
X4572965Y-8461400D01*
X4559350Y-8462314D01*
X4545990Y-8465007D01*
X4533138Y-8469477D01*
X4520946Y-8475624D01*
X4509719Y-8483346D01*
X4499610Y-8492490D01*
X4490770Y-8502904D01*
X4483455Y-8514435D01*
X4477715Y-8526780D01*
X4473651Y-8539835D01*
X4471416Y-8553246D01*
X4470958Y-8566912D01*
X4472330Y-8580475D01*
X4475480Y-8593734D01*
X4480356Y-8606434D01*
X4486910Y-8618423D01*
X4495038Y-8629396D01*
X4504486Y-8639200D01*
X4515205Y-8647633D01*
X4526940Y-8654592D01*
X4539488Y-8659926D01*
X4552645Y-8663533D01*
G37*
G36*
X4820158Y-8538362D02*
G01*
X4833772Y-8538362D01*
X4847285Y-8536533D01*
X4860442Y-8532926D01*
X4872990Y-8527592D01*
X4884724Y-8520633D01*
X4895443Y-8512200D01*
X4904943Y-8502396D01*
X4913020Y-8491423D01*
X4919573Y-8479434D01*
X4924450Y-8466734D01*
X4927650Y-8453475D01*
X4929022Y-8439912D01*
X4928565Y-8426246D01*
X4926279Y-8412835D01*
X4922215Y-8399780D01*
X4916474Y-8387435D01*
X4909159Y-8375954D01*
X4900371Y-8365540D01*
X4890262Y-8356396D01*
X4878984Y-8348675D01*
X4866843Y-8342528D01*
X4853940Y-8338007D01*
X4840579Y-8335314D01*
X4826965Y-8334400D01*
X4813350Y-8335314D01*
X4799990Y-8338007D01*
X4787138Y-8342528D01*
X4774946Y-8348675D01*
X4763719Y-8356396D01*
X4753610Y-8365540D01*
X4744770Y-8375954D01*
X4737455Y-8387435D01*
X4731715Y-8399780D01*
X4727651Y-8412835D01*
X4725416Y-8426246D01*
X4724958Y-8439912D01*
X4726330Y-8453475D01*
X4729480Y-8466734D01*
X4734356Y-8479434D01*
X4740910Y-8491423D01*
X4749038Y-8502396D01*
X4758486Y-8512200D01*
X4769205Y-8520633D01*
X4780940Y-8527592D01*
X4793488Y-8532926D01*
X4806645Y-8536533D01*
G37*
G36*
X4617415Y-8401304D02*
G01*
X4619040Y-8400592D01*
X4630775Y-8393684D01*
X4641443Y-8385200D01*
X4650943Y-8375396D01*
X4659020Y-8364423D01*
X4664760Y-8353958D01*
X4617415Y-8353958D01*
G37*
G36*
X4528515Y-8401304D02*
G01*
X4528515Y-8353958D01*
X4481169Y-8353958D01*
X4486910Y-8364423D01*
X4495038Y-8375396D01*
X4504486Y-8385200D01*
X4515205Y-8393684D01*
X4526940Y-8400592D01*
G37*
G36*
X4820158Y-8284362D02*
G01*
X4833772Y-8284362D01*
X4847285Y-8282533D01*
X4860442Y-8278926D01*
X4873040Y-8273592D01*
X4884775Y-8266684D01*
X4895443Y-8258200D01*
X4904943Y-8248396D01*
X4913020Y-8237423D01*
X4919573Y-8225485D01*
X4924501Y-8212734D01*
X4927650Y-8199475D01*
X4929022Y-8185912D01*
X4928565Y-8172297D01*
X4926279Y-8158835D01*
X4922215Y-8145830D01*
X4916474Y-8133435D01*
X4909159Y-8121954D01*
X4900371Y-8111540D01*
X4890262Y-8102396D01*
X4878984Y-8094675D01*
X4866843Y-8088528D01*
X4853940Y-8084058D01*
X4840579Y-8081314D01*
X4826965Y-8080400D01*
X4813350Y-8081314D01*
X4799990Y-8084058D01*
X4787138Y-8088528D01*
X4774946Y-8094675D01*
X4763719Y-8102396D01*
X4753610Y-8111540D01*
X4744770Y-8121954D01*
X4737455Y-8133435D01*
X4731715Y-8145830D01*
X4727651Y-8158835D01*
X4725416Y-8172297D01*
X4724958Y-8185912D01*
X4726330Y-8199475D01*
X4729480Y-8212734D01*
X4734356Y-8225485D01*
X4740910Y-8237423D01*
X4749038Y-8248396D01*
X4758486Y-8258200D01*
X4769205Y-8266684D01*
X4780940Y-8273592D01*
X4793488Y-8278926D01*
X4806645Y-8282533D01*
G37*
G36*
X4481322Y-8265058D02*
G01*
X4528515Y-8265058D01*
X4528515Y-8217814D01*
X4520946Y-8221675D01*
X4509719Y-8229396D01*
X4499610Y-8238540D01*
X4490770Y-8248954D01*
X4483455Y-8260435D01*
G37*
G36*
X4617415Y-8265058D02*
G01*
X4664659Y-8265058D01*
X4662474Y-8260435D01*
X4655159Y-8248954D01*
X4646371Y-8238540D01*
X4636262Y-8229396D01*
X4624984Y-8221675D01*
X4617415Y-8217814D01*
G37*
G36*
X3933240Y-8182813D02*
G01*
X3952240Y-8182356D01*
X3971137Y-8179968D01*
X3989679Y-8175752D01*
X4007713Y-8169706D01*
X4025087Y-8161832D01*
X4041546Y-8152333D01*
X4056989Y-8141208D01*
X4071264Y-8128660D01*
X4084218Y-8114690D01*
X4095699Y-8099501D01*
X4105656Y-8083296D01*
X4113885Y-8066125D01*
X4120387Y-8048244D01*
X4125112Y-8029803D01*
X4127957Y-8011007D01*
X4128871Y-7992008D01*
X4127957Y-7972958D01*
X4125112Y-7954162D01*
X4120387Y-7935722D01*
X4113885Y-7917840D01*
X4105656Y-7900670D01*
X4095699Y-7884464D01*
X4084218Y-7869275D01*
X4071264Y-7855305D01*
X4056989Y-7842758D01*
X4041546Y-7831632D01*
X4025087Y-7822133D01*
X4007713Y-7814259D01*
X3989679Y-7808214D01*
X3971137Y-7803997D01*
X3952240Y-7801609D01*
X3933240Y-7801152D01*
X3914241Y-7802575D01*
X3895496Y-7805877D01*
X3877208Y-7811008D01*
X3859479Y-7817967D01*
X3842562Y-7826654D01*
X3826560Y-7836966D01*
X3811676Y-7848853D01*
X3798062Y-7862163D01*
X3785819Y-7876743D01*
X3775100Y-7892440D01*
X3766007Y-7909153D01*
X3758590Y-7926679D01*
X3753002Y-7944866D01*
X3749243Y-7963509D01*
X3747312Y-7982458D01*
X3747312Y-8001508D01*
X3749243Y-8020456D01*
X3753002Y-8039100D01*
X3758590Y-8057286D01*
X3766007Y-8074812D01*
X3775100Y-8091525D01*
X3785819Y-8107222D01*
X3798062Y-8121802D01*
X3811676Y-8135112D01*
X3826560Y-8146999D01*
X3842562Y-8157311D01*
X3859479Y-8165998D01*
X3877208Y-8172958D01*
X3895496Y-8178088D01*
X3914241Y-8181390D01*
G37*
G36*
X5246573Y-5605881D02*
G01*
X5405424Y-5605881D01*
X5411724Y-5605170D01*
X5417210Y-5603290D01*
X5422087Y-5600192D01*
X5426202Y-5596077D01*
X5429250Y-5591200D01*
X5431180Y-5585764D01*
X5431891Y-5579414D01*
X5431891Y-5420563D01*
X5431180Y-5414213D01*
X5429250Y-5408777D01*
X5426202Y-5403900D01*
X5422087Y-5399786D01*
X5417210Y-5396687D01*
X5411724Y-5394807D01*
X5405424Y-5394096D01*
X5246573Y-5394096D01*
X5240223Y-5394807D01*
X5234787Y-5396687D01*
X5229860Y-5399786D01*
X5225796Y-5403900D01*
X5222697Y-5408777D01*
X5220817Y-5414213D01*
X5220106Y-5420563D01*
X5220106Y-5579414D01*
X5220817Y-5585764D01*
X5222697Y-5591200D01*
X5225796Y-5596077D01*
X5229860Y-5600192D01*
X5234787Y-5603290D01*
X5240223Y-5605170D01*
G37*
G36*
X5533644Y-5594959D02*
G01*
X5533644Y-5546344D01*
X5485028Y-5546344D01*
X5488279Y-5552948D01*
X5496001Y-5564428D01*
X5505094Y-5574842D01*
X5515508Y-5583986D01*
X5527040Y-5591708D01*
G37*
G36*
X5485028Y-5453634D02*
G01*
X5533644Y-5453634D01*
X5533644Y-5405018D01*
X5527040Y-5408269D01*
X5515508Y-5415991D01*
X5505094Y-5425135D01*
X5496001Y-5435549D01*
X5488279Y-5447030D01*
G37*
G36*
X4612335Y-4746447D02*
G01*
X4614519Y-4745482D01*
X4627524Y-4737608D01*
X4639462Y-4728210D01*
X4650232Y-4717491D01*
X4659579Y-4705502D01*
X4667453Y-4692497D01*
X4668418Y-4690364D01*
X4612335Y-4690364D01*
G37*
G36*
X4499660Y-4746447D02*
G01*
X4499660Y-4690364D01*
X4443577Y-4690364D01*
X4444542Y-4692497D01*
X4452366Y-4705502D01*
X4461764Y-4717491D01*
X4472533Y-4728210D01*
X4484471Y-4737608D01*
X4497476Y-4745482D01*
G37*
G36*
X4443577Y-4577638D02*
G01*
X4499660Y-4577638D01*
X4499660Y-4521555D01*
X4497476Y-4522520D01*
X4484471Y-4530394D01*
X4472533Y-4539742D01*
X4461764Y-4550511D01*
X4452366Y-4562500D01*
X4444542Y-4575505D01*
G37*
G36*
X4612335Y-4577638D02*
G01*
X4668418Y-4577638D01*
X4667453Y-4575505D01*
X4659579Y-4562500D01*
X4650232Y-4550511D01*
X4639462Y-4539742D01*
X4627524Y-4530394D01*
X4614519Y-4522520D01*
X4612335Y-4521555D01*
G37*
G36*
X8079994Y-4290872D02*
G01*
X8094522Y-4289958D01*
X8108797Y-4287215D01*
X8122666Y-4282744D01*
X8135823Y-4276547D01*
X8148116Y-4268724D01*
X8159292Y-4259478D01*
X8169300Y-4248861D01*
X8177834Y-4237075D01*
X8184845Y-4224324D01*
X8190179Y-4210812D01*
X8193836Y-4196689D01*
X8195665Y-4182262D01*
X8195665Y-4167733D01*
X8193836Y-4153255D01*
X8190179Y-4139184D01*
X8184845Y-4125671D01*
X8177834Y-4112920D01*
X8169300Y-4101134D01*
X8159292Y-4090517D01*
X8148116Y-4081221D01*
X8135823Y-4073448D01*
X8122666Y-4067251D01*
X8108797Y-4062729D01*
X8094522Y-4060037D01*
X8086852Y-4059275D01*
X8017611Y-4054449D01*
X8014106Y-4053586D01*
X8011109Y-4051503D01*
X7672628Y-3713073D01*
X7666431Y-3707942D01*
X7659725Y-3704386D01*
X7652512Y-3702202D01*
X7644485Y-3701389D01*
X7470495Y-3701389D01*
X7466025Y-3700373D01*
X7454188Y-3694582D01*
X7449769Y-3691585D01*
X7441184Y-3687216D01*
X7431430Y-3684219D01*
X7427823Y-3682237D01*
X7425283Y-3678936D01*
X7424267Y-3674922D01*
X7424978Y-3670808D01*
X7427214Y-3667353D01*
X7836916Y-3257651D01*
X7842046Y-3251403D01*
X7845602Y-3244748D01*
X7847787Y-3237534D01*
X7848600Y-3229508D01*
X7848600Y-2080158D01*
X7849362Y-2076297D01*
X7851546Y-2072995D01*
X7881569Y-2042972D01*
X7885430Y-2040585D01*
X7897672Y-2036318D01*
X7901940Y-2035556D01*
X7911185Y-2032762D01*
X7919770Y-2028393D01*
X7927543Y-2022652D01*
X7934248Y-2015693D01*
X7939633Y-2007717D01*
X7943596Y-1998929D01*
X7946034Y-1989582D01*
X7946847Y-1979980D01*
X7946034Y-1970379D01*
X7943596Y-1961032D01*
X7939633Y-1952243D01*
X7934248Y-1944268D01*
X7927543Y-1937308D01*
X7919770Y-1931568D01*
X7911185Y-1927199D01*
X7901940Y-1924405D01*
X7892389Y-1923135D01*
X7882737Y-1923592D01*
X7873339Y-1925624D01*
X7864348Y-1929180D01*
X7856169Y-1934260D01*
X7848904Y-1940610D01*
X7842859Y-1948129D01*
X7838135Y-1956562D01*
X7834934Y-1965655D01*
X7833715Y-1971954D01*
X7829397Y-1984552D01*
X7826959Y-1988413D01*
X7783017Y-2032304D01*
X7777937Y-2038553D01*
X7774381Y-2045207D01*
X7772146Y-2052472D01*
X7771384Y-2060448D01*
X7771384Y-3209798D01*
X7770622Y-3213658D01*
X7768386Y-3216960D01*
X7425690Y-3559708D01*
X7422235Y-3561943D01*
X7418171Y-3562654D01*
X7414158Y-3561689D01*
X7410856Y-3559200D01*
X7408824Y-3555593D01*
X7408418Y-3551529D01*
X7408621Y-3549497D01*
X7408621Y-2040483D01*
X7409637Y-2036064D01*
X7415377Y-2024176D01*
X7419644Y-2017725D01*
X7423607Y-2008936D01*
X7426045Y-1999589D01*
X7426858Y-1989988D01*
X7426045Y-1980387D01*
X7423607Y-1971039D01*
X7419644Y-1962251D01*
X7414259Y-1954275D01*
X7407554Y-1947316D01*
X7399781Y-1941575D01*
X7391196Y-1937207D01*
X7381951Y-1934413D01*
X7372400Y-1933143D01*
X7362748Y-1933600D01*
X7353350Y-1935632D01*
X7344359Y-1939188D01*
X7336180Y-1944268D01*
X7328916Y-1950618D01*
X7322870Y-1958136D01*
X7318146Y-1966569D01*
X7314946Y-1975662D01*
X7313320Y-1985162D01*
X7313320Y-1994814D01*
X7314946Y-2004314D01*
X7318146Y-2013407D01*
X7322870Y-2021839D01*
X7324852Y-2024684D01*
X7330338Y-2036064D01*
X7331405Y-2040483D01*
X7331405Y-3529787D01*
X7330592Y-3533698D01*
X7328408Y-3536950D01*
X7152487Y-3712870D01*
X7148931Y-3715156D01*
X7144766Y-3715816D01*
X7140702Y-3714699D01*
X7137400Y-3712006D01*
X7135520Y-3708247D01*
X7133640Y-3701034D01*
X7129627Y-3692245D01*
X7124242Y-3684270D01*
X7117588Y-3677310D01*
X7109815Y-3671570D01*
X7101179Y-3667201D01*
X7091984Y-3664407D01*
X7087717Y-3663645D01*
X7075424Y-3659378D01*
X7071563Y-3656990D01*
X6071565Y-2656941D01*
X6069380Y-2653639D01*
X6068618Y-2649778D01*
X6068618Y-2000504D01*
X6069634Y-1996084D01*
X6075375Y-1984248D01*
X6079642Y-1977745D01*
X6083604Y-1968957D01*
X6086043Y-1959610D01*
X6086856Y-1950008D01*
X6086043Y-1940407D01*
X6083604Y-1931060D01*
X6079642Y-1922272D01*
X6074257Y-1914296D01*
X6067552Y-1907336D01*
X6059779Y-1901596D01*
X6051194Y-1897227D01*
X6041948Y-1894433D01*
X6032398Y-1893163D01*
X6022746Y-1893620D01*
X6013348Y-1895652D01*
X6004356Y-1899208D01*
X5996178Y-1904288D01*
X5988913Y-1910638D01*
X5982868Y-1918157D01*
X5978144Y-1926589D01*
X5974943Y-1935683D01*
X5973318Y-1945182D01*
X5973318Y-1954834D01*
X5974943Y-1964334D01*
X5978144Y-1973427D01*
X5982868Y-1981860D01*
X5984798Y-1984654D01*
X5990336Y-1996084D01*
X5991402Y-2000504D01*
X5991402Y-2669489D01*
X5991555Y-2671521D01*
X5991148Y-2675636D01*
X5989116Y-2679192D01*
X5985814Y-2681681D01*
X5981801Y-2682646D01*
X5977737Y-2681935D01*
X5974283Y-2679700D01*
X5921552Y-2626969D01*
X5919368Y-2623667D01*
X5918606Y-2619806D01*
X5918606Y-2001520D01*
X5918809Y-1999488D01*
X5922213Y-1982724D01*
X5923635Y-1978914D01*
X5926023Y-1969617D01*
X5926886Y-1960016D01*
X5926023Y-1950364D01*
X5923635Y-1941068D01*
X5919622Y-1932279D01*
X5914237Y-1924253D01*
X5907582Y-1917293D01*
X5899810Y-1911553D01*
X5891174Y-1907235D01*
X5881979Y-1904390D01*
X5872429Y-1903171D01*
X5862777Y-1903577D01*
X5853328Y-1905609D01*
X5844387Y-1909216D01*
X5836158Y-1914245D01*
X5828944Y-1920646D01*
X5822848Y-1928164D01*
X5818174Y-1936546D01*
X5814974Y-1945639D01*
X5813348Y-1955190D01*
X5813348Y-1964791D01*
X5814974Y-1974342D01*
X5818174Y-1983435D01*
X5822848Y-1991817D01*
X5828944Y-1999335D01*
X5833872Y-2003856D01*
X5839155Y-2010410D01*
X5840780Y-2013407D01*
X5841390Y-2016810D01*
X5841390Y-2639517D01*
X5842152Y-2647492D01*
X5844387Y-2654757D01*
X5847943Y-2661412D01*
X5853023Y-2667660D01*
X6946950Y-3761587D01*
X6949389Y-3765448D01*
X6953758Y-3777996D01*
X6954977Y-3784346D01*
X6958177Y-3793439D01*
X6959752Y-3796284D01*
X6961022Y-3800297D01*
X6960514Y-3804462D01*
X6958380Y-3808069D01*
X6954977Y-3810508D01*
X6950913Y-3811371D01*
X6910476Y-3811371D01*
X6902450Y-3812184D01*
X6895236Y-3814368D01*
X6888581Y-3817924D01*
X6882333Y-3823055D01*
X6868414Y-3836974D01*
X6864553Y-3839413D01*
X6851294Y-3843883D01*
X6843318Y-3845610D01*
X6834378Y-3849217D01*
X6826148Y-3854246D01*
X6818934Y-3860647D01*
X6812838Y-3868165D01*
X6808165Y-3876548D01*
X6804964Y-3885641D01*
X6803339Y-3895191D01*
X6803339Y-3904792D01*
X6804964Y-3914343D01*
X6808165Y-3923436D01*
X6812838Y-3931818D01*
X6818934Y-3939336D01*
X6826148Y-3945737D01*
X6834378Y-3950766D01*
X6843318Y-3954373D01*
X6852767Y-3956405D01*
X6866940Y-3956964D01*
X6870344Y-3958539D01*
X6872935Y-3961231D01*
X6874408Y-3964736D01*
X6874459Y-3968496D01*
X6873341Y-3975201D01*
X6873341Y-3984802D01*
X6874967Y-3994353D01*
X6878167Y-4003446D01*
X6882841Y-4011828D01*
X6888937Y-4019346D01*
X6896150Y-4025747D01*
X6904380Y-4030776D01*
X6913321Y-4034383D01*
X6922770Y-4036415D01*
X6932422Y-4036822D01*
X6941972Y-4035602D01*
X6951167Y-4032758D01*
X6959803Y-4028440D01*
X6964172Y-4025392D01*
X6976059Y-4019651D01*
X6980478Y-4018635D01*
X7059472Y-4018635D01*
X7067499Y-4017822D01*
X7074712Y-4015638D01*
X7081418Y-4012082D01*
X7087616Y-4006951D01*
X7347458Y-3747109D01*
X7351166Y-3744772D01*
X7355535Y-3744214D01*
X7359751Y-3745534D01*
X7362952Y-3748532D01*
X7364628Y-3752596D01*
X7364933Y-3754323D01*
X7368133Y-3763416D01*
X7372858Y-3771849D01*
X7378903Y-3779367D01*
X7386167Y-3785717D01*
X7394346Y-3790797D01*
X7403338Y-3794353D01*
X7412736Y-3796385D01*
X7422388Y-3796842D01*
X7431938Y-3795572D01*
X7441184Y-3792778D01*
X7449769Y-3788410D01*
X7454188Y-3785362D01*
X7466025Y-3779621D01*
X7470495Y-3778605D01*
X7624775Y-3778605D01*
X7628686Y-3779367D01*
X7631988Y-3781602D01*
X7956499Y-4106113D01*
X7958581Y-4109059D01*
X7959445Y-4112564D01*
X7964322Y-4182262D01*
X7966151Y-4196689D01*
X7969758Y-4210812D01*
X7975142Y-4224324D01*
X7982153Y-4237075D01*
X7990687Y-4248861D01*
X8000644Y-4259478D01*
X8011871Y-4268724D01*
X8024164Y-4276547D01*
X8037322Y-4282744D01*
X8051139Y-4287215D01*
X8065465Y-4289958D01*
G37*
G36*
X4555998Y-4251858D02*
G01*
X4571187Y-4250944D01*
X4586122Y-4248200D01*
X4600651Y-4243679D01*
X4614519Y-4237482D01*
X4627524Y-4229608D01*
X4639462Y-4220210D01*
X4650232Y-4209491D01*
X4659579Y-4197502D01*
X4667453Y-4184497D01*
X4673701Y-4170629D01*
X4678222Y-4156100D01*
X4680966Y-4141165D01*
X4681880Y-4125976D01*
X4680966Y-4110837D01*
X4678222Y-4095851D01*
X4673701Y-4081373D01*
X4667453Y-4067505D01*
X4659579Y-4054500D01*
X4650232Y-4042511D01*
X4639462Y-4031742D01*
X4627524Y-4022394D01*
X4614519Y-4014520D01*
X4600651Y-4008272D01*
X4586122Y-4003751D01*
X4571187Y-4001008D01*
X4555998Y-4000093D01*
X4540808Y-4001008D01*
X4525873Y-4003751D01*
X4511344Y-4008272D01*
X4497476Y-4014520D01*
X4484471Y-4022394D01*
X4472533Y-4031742D01*
X4461764Y-4042511D01*
X4452366Y-4054500D01*
X4444542Y-4067505D01*
X4438294Y-4081373D01*
X4433773Y-4095851D01*
X4431030Y-4110837D01*
X4430115Y-4125976D01*
X4431030Y-4141165D01*
X4433773Y-4156100D01*
X4438294Y-4170629D01*
X4444542Y-4184497D01*
X4452366Y-4197502D01*
X4461764Y-4209491D01*
X4472533Y-4220210D01*
X4484471Y-4229608D01*
X4497476Y-4237482D01*
X4511344Y-4243679D01*
X4525873Y-4248200D01*
X4540808Y-4250944D01*
G37*
G36*
X8079994Y-4036872D02*
G01*
X8094522Y-4035958D01*
X8108797Y-4033215D01*
X8122666Y-4028744D01*
X8135823Y-4022547D01*
X8148116Y-4014724D01*
X8159292Y-4005478D01*
X8169300Y-3994861D01*
X8177834Y-3983075D01*
X8184845Y-3970324D01*
X8190179Y-3956812D01*
X8193836Y-3942689D01*
X8195665Y-3928262D01*
X8195665Y-3913733D01*
X8193836Y-3899255D01*
X8190179Y-3885184D01*
X8184845Y-3871671D01*
X8177834Y-3858920D01*
X8169300Y-3847134D01*
X8159292Y-3836517D01*
X8148116Y-3827221D01*
X8135823Y-3819448D01*
X8122666Y-3813251D01*
X8108797Y-3808729D01*
X8094522Y-3806037D01*
X8079994Y-3805123D01*
X8065465Y-3806037D01*
X8051139Y-3808729D01*
X8037322Y-3813251D01*
X8024164Y-3819448D01*
X8011871Y-3827221D01*
X8000644Y-3836517D01*
X7990687Y-3847134D01*
X7982153Y-3858920D01*
X7975142Y-3871671D01*
X7969758Y-3885184D01*
X7966151Y-3899255D01*
X7964322Y-3913733D01*
X7964322Y-3928262D01*
X7966151Y-3942689D01*
X7969758Y-3956812D01*
X7975142Y-3970324D01*
X7982153Y-3983075D01*
X7990687Y-3994861D01*
X8000644Y-4005478D01*
X8011871Y-4014724D01*
X8024164Y-4022547D01*
X8037322Y-4028744D01*
X8051139Y-4033215D01*
X8065465Y-4035958D01*
G37*
G36*
X8079994Y-3782872D02*
G01*
X8094522Y-3781958D01*
X8108797Y-3779215D01*
X8122666Y-3774744D01*
X8135823Y-3768547D01*
X8148116Y-3760724D01*
X8159292Y-3751478D01*
X8169300Y-3740861D01*
X8177834Y-3729075D01*
X8184845Y-3716324D01*
X8190179Y-3702812D01*
X8193836Y-3688689D01*
X8195665Y-3674262D01*
X8195665Y-3659733D01*
X8193836Y-3645255D01*
X8190179Y-3631184D01*
X8184845Y-3617671D01*
X8177834Y-3604920D01*
X8169300Y-3593134D01*
X8159292Y-3582517D01*
X8148116Y-3573221D01*
X8135823Y-3565448D01*
X8122666Y-3559251D01*
X8108797Y-3554729D01*
X8094522Y-3552037D01*
X8079994Y-3551123D01*
X8065465Y-3552037D01*
X8051139Y-3554729D01*
X8037322Y-3559251D01*
X8024164Y-3565448D01*
X8011871Y-3573221D01*
X8000644Y-3582517D01*
X7990687Y-3593134D01*
X7982153Y-3604920D01*
X7975142Y-3617671D01*
X7969758Y-3631184D01*
X7966151Y-3645255D01*
X7964322Y-3659733D01*
X7964322Y-3674262D01*
X7966151Y-3688689D01*
X7969758Y-3702812D01*
X7975142Y-3716324D01*
X7982153Y-3729075D01*
X7990687Y-3740861D01*
X8000644Y-3751478D01*
X8011871Y-3760724D01*
X8024164Y-3768547D01*
X8037322Y-3774744D01*
X8051139Y-3779215D01*
X8065465Y-3781958D01*
G37*
G36*
X8028635Y-3516629D02*
G01*
X8028635Y-3464356D01*
X7976209Y-3464356D01*
X7982153Y-3475075D01*
X7990687Y-3486861D01*
X8000644Y-3497478D01*
X8011871Y-3506724D01*
X8024164Y-3514547D01*
G37*
G36*
X8131352Y-3516629D02*
G01*
X8135823Y-3514547D01*
X8148116Y-3506724D01*
X8159292Y-3497478D01*
X8169300Y-3486861D01*
X8177834Y-3475075D01*
X8183727Y-3464356D01*
X8131352Y-3464356D01*
G37*
G36*
X7976209Y-3361639D02*
G01*
X8028635Y-3361639D01*
X8028635Y-3309315D01*
X8024164Y-3311448D01*
X8011871Y-3319221D01*
X8000644Y-3328517D01*
X7990687Y-3339134D01*
X7982153Y-3350920D01*
G37*
G36*
X8131352Y-3361639D02*
G01*
X8183727Y-3361639D01*
X8177834Y-3350920D01*
X8169300Y-3339134D01*
X8159292Y-3328517D01*
X8148116Y-3319221D01*
X8135823Y-3311448D01*
X8131352Y-3309315D01*
G37*
G36*
X8079994Y-3274872D02*
G01*
X8094522Y-3273958D01*
X8108797Y-3271215D01*
X8122666Y-3266744D01*
X8135823Y-3260547D01*
X8148116Y-3252724D01*
X8159292Y-3243478D01*
X8169300Y-3232861D01*
X8177834Y-3221075D01*
X8184845Y-3208324D01*
X8190179Y-3194812D01*
X8193836Y-3180689D01*
X8195665Y-3166262D01*
X8195665Y-3151733D01*
X8193836Y-3137255D01*
X8190179Y-3123184D01*
X8184845Y-3109671D01*
X8177834Y-3096920D01*
X8169300Y-3085134D01*
X8159292Y-3074517D01*
X8148116Y-3065221D01*
X8135823Y-3057448D01*
X8122666Y-3051251D01*
X8108797Y-3046730D01*
X8094522Y-3044037D01*
X8079994Y-3043123D01*
X8065465Y-3044037D01*
X8051139Y-3046730D01*
X8037322Y-3051251D01*
X8024164Y-3057448D01*
X8011871Y-3065221D01*
X8000644Y-3074517D01*
X7990687Y-3085134D01*
X7982153Y-3096920D01*
X7975142Y-3109671D01*
X7969758Y-3123184D01*
X7966151Y-3137255D01*
X7964322Y-3151733D01*
X7964322Y-3166262D01*
X7966151Y-3180689D01*
X7969758Y-3194812D01*
X7975142Y-3208324D01*
X7982153Y-3221075D01*
X7990687Y-3232861D01*
X8000644Y-3243478D01*
X8011871Y-3252724D01*
X8024164Y-3260547D01*
X8037322Y-3266744D01*
X8051139Y-3271215D01*
X8065465Y-3273958D01*
G37*
G36*
X7990535Y-3020923D02*
G01*
X8169402Y-3020923D01*
X8175752Y-3020212D01*
X8181187Y-3018282D01*
X8186115Y-3015183D01*
X8190179Y-3011119D01*
X8193278Y-3006191D01*
X8195157Y-3000756D01*
X8195868Y-2994406D01*
X8195868Y-2815539D01*
X8195157Y-2809240D01*
X8193278Y-2803804D01*
X8190179Y-2798876D01*
X8186115Y-2794812D01*
X8181187Y-2791714D01*
X8175752Y-2789783D01*
X8169402Y-2789072D01*
X7990535Y-2789072D01*
X7984236Y-2789783D01*
X7978749Y-2791714D01*
X7973872Y-2794812D01*
X7969758Y-2798876D01*
X7966709Y-2803804D01*
X7964779Y-2809240D01*
X7964068Y-2815539D01*
X7964068Y-2994406D01*
X7964779Y-3000756D01*
X7966709Y-3006191D01*
X7969758Y-3011119D01*
X7973872Y-3015183D01*
X7978749Y-3018282D01*
X7984236Y-3020212D01*
G37*
G36*
X4680559Y-2795676D02*
G01*
X4699406Y-2795676D01*
X4718151Y-2793746D01*
X4736592Y-2789986D01*
X4754524Y-2784348D01*
X4771847Y-2776880D01*
X4788306Y-2767736D01*
X4803749Y-2757017D01*
X4818075Y-2744724D01*
X4831029Y-2731109D01*
X4842560Y-2716174D01*
X4852517Y-2700223D01*
X4860798Y-2683306D01*
X4867351Y-2665628D01*
X4872075Y-2647442D01*
X4874920Y-2628798D01*
X4875885Y-2610002D01*
X4874920Y-2591206D01*
X4872075Y-2572562D01*
X4867351Y-2554376D01*
X4860798Y-2536698D01*
X4852517Y-2519781D01*
X4842560Y-2503830D01*
X4831029Y-2488895D01*
X4818075Y-2475280D01*
X4803749Y-2462987D01*
X4788306Y-2452268D01*
X4771847Y-2443124D01*
X4754524Y-2435656D01*
X4736592Y-2430018D01*
X4718151Y-2426258D01*
X4699406Y-2424328D01*
X4680559Y-2424328D01*
X4661814Y-2426258D01*
X4643374Y-2430018D01*
X4625441Y-2435656D01*
X4608118Y-2443124D01*
X4591659Y-2452268D01*
X4576216Y-2462987D01*
X4561890Y-2475280D01*
X4548936Y-2488895D01*
X4537405Y-2503830D01*
X4527448Y-2519781D01*
X4519168Y-2536698D01*
X4512614Y-2554376D01*
X4507890Y-2572562D01*
X4505045Y-2591206D01*
X4504080Y-2610002D01*
X4505045Y-2628798D01*
X4507890Y-2647442D01*
X4512614Y-2665628D01*
X4519168Y-2683306D01*
X4527448Y-2700223D01*
X4537405Y-2716174D01*
X4548936Y-2731109D01*
X4561890Y-2744724D01*
X4576216Y-2757017D01*
X4591659Y-2767736D01*
X4608118Y-2776880D01*
X4625441Y-2784348D01*
X4643374Y-2789986D01*
X4661814Y-2793746D01*
G37*
G36*
X5869990Y-850900D02*
G01*
X5886907Y-849934D01*
X5903569Y-847090D01*
X5919825Y-842416D01*
X5935472Y-835964D01*
X5950254Y-827786D01*
X5964072Y-817981D01*
X5976670Y-806704D01*
X5987948Y-794054D01*
X5997752Y-780288D01*
X6005931Y-765454D01*
X6012434Y-749858D01*
X6017107Y-733552D01*
X6019952Y-716889D01*
X6020866Y-700024D01*
X6019952Y-683107D01*
X6017107Y-666445D01*
X6012434Y-650138D01*
X6005931Y-634542D01*
X5997752Y-619709D01*
X5987948Y-605942D01*
X5976670Y-593293D01*
X5964072Y-582015D01*
X5950254Y-572211D01*
X5935472Y-564032D01*
X5919825Y-557580D01*
X5903569Y-552907D01*
X5886907Y-550062D01*
X5869990Y-549097D01*
X5853074Y-550062D01*
X5836412Y-552907D01*
X5820156Y-557580D01*
X5804509Y-564032D01*
X5789726Y-572211D01*
X5775909Y-582015D01*
X5763310Y-593293D01*
X5752033Y-605942D01*
X5742228Y-619709D01*
X5734050Y-634542D01*
X5727547Y-650138D01*
X5722874Y-666445D01*
X5720029Y-683107D01*
X5719114Y-700024D01*
X5720029Y-716889D01*
X5722874Y-733552D01*
X5727547Y-749858D01*
X5734050Y-765454D01*
X5742228Y-780288D01*
X5752033Y-794054D01*
X5763310Y-806704D01*
X5775909Y-817981D01*
X5789726Y-827786D01*
X5804509Y-835964D01*
X5820156Y-842416D01*
X5836412Y-847090D01*
X5853074Y-849934D01*
G37*
G36*
X7679994Y-850900D02*
G01*
X7696860Y-849934D01*
X7713573Y-847090D01*
X7729829Y-842416D01*
X7745475Y-835964D01*
X7760258Y-827786D01*
X7774076Y-817981D01*
X7786674Y-806704D01*
X7797952Y-794054D01*
X7807756Y-780288D01*
X7815935Y-765454D01*
X7822387Y-749858D01*
X7827111Y-733552D01*
X7829905Y-716889D01*
X7830870Y-700024D01*
X7829905Y-683107D01*
X7827111Y-666445D01*
X7822387Y-650138D01*
X7815935Y-634542D01*
X7807756Y-619709D01*
X7797952Y-605942D01*
X7786674Y-593293D01*
X7774076Y-582015D01*
X7760258Y-572211D01*
X7745475Y-564032D01*
X7729829Y-557580D01*
X7713573Y-552907D01*
X7696860Y-550062D01*
X7679994Y-549097D01*
X7663078Y-550062D01*
X7646416Y-552907D01*
X7630159Y-557580D01*
X7614513Y-564032D01*
X7599730Y-572211D01*
X7585913Y-582015D01*
X7573264Y-593293D01*
X7562037Y-605942D01*
X7552232Y-619709D01*
X7544053Y-634542D01*
X7537551Y-650138D01*
X7532878Y-666445D01*
X7530033Y-683107D01*
X7529068Y-700024D01*
X7530033Y-716889D01*
X7532878Y-733552D01*
X7537551Y-749858D01*
X7544053Y-765454D01*
X7552232Y-780288D01*
X7562037Y-794054D01*
X7573264Y-806704D01*
X7585913Y-817981D01*
X7599730Y-827786D01*
X7614513Y-835964D01*
X7630159Y-842416D01*
X7646416Y-847090D01*
X7663078Y-849934D01*
G37*
G36*
X7171994Y-850900D02*
G01*
X7188860Y-849934D01*
X7205573Y-847090D01*
X7221829Y-842416D01*
X7237475Y-835964D01*
X7252258Y-827786D01*
X7266076Y-817981D01*
X7278674Y-806704D01*
X7289952Y-794054D01*
X7299756Y-780288D01*
X7307935Y-765454D01*
X7314387Y-749858D01*
X7319111Y-733552D01*
X7321905Y-716889D01*
X7322870Y-700024D01*
X7321905Y-683107D01*
X7319111Y-666445D01*
X7314387Y-650138D01*
X7307935Y-634542D01*
X7299756Y-619709D01*
X7289952Y-605942D01*
X7278674Y-593293D01*
X7266076Y-582015D01*
X7252258Y-572211D01*
X7237475Y-564032D01*
X7221829Y-557580D01*
X7205573Y-552907D01*
X7188860Y-550062D01*
X7171994Y-549097D01*
X7155078Y-550062D01*
X7138416Y-552907D01*
X7122159Y-557580D01*
X7106513Y-564032D01*
X7091730Y-572211D01*
X7077913Y-582015D01*
X7065264Y-593293D01*
X7054037Y-605942D01*
X7044232Y-619709D01*
X7036053Y-634542D01*
X7029551Y-650138D01*
X7024878Y-666445D01*
X7022033Y-683107D01*
X7021068Y-700024D01*
X7022033Y-716889D01*
X7024878Y-733552D01*
X7029551Y-749858D01*
X7036053Y-765454D01*
X7044232Y-780288D01*
X7054037Y-794054D01*
X7065264Y-806704D01*
X7077913Y-817981D01*
X7091730Y-827786D01*
X7106513Y-835964D01*
X7122159Y-842416D01*
X7138416Y-847090D01*
X7155078Y-849934D01*
G37*
G36*
X5361990Y-850900D02*
G01*
X5378907Y-849934D01*
X5395569Y-847090D01*
X5411825Y-842416D01*
X5427472Y-835964D01*
X5442254Y-827786D01*
X5456072Y-817981D01*
X5468670Y-806704D01*
X5479948Y-794054D01*
X5489752Y-780288D01*
X5497931Y-765454D01*
X5504434Y-749858D01*
X5509107Y-733552D01*
X5511952Y-716889D01*
X5512866Y-700024D01*
X5511952Y-683107D01*
X5509107Y-666445D01*
X5504434Y-650138D01*
X5497931Y-634542D01*
X5489752Y-619709D01*
X5479948Y-605942D01*
X5468670Y-593293D01*
X5456072Y-582015D01*
X5442254Y-572211D01*
X5427472Y-564032D01*
X5411825Y-557580D01*
X5395569Y-552907D01*
X5378907Y-550062D01*
X5361990Y-549097D01*
X5345074Y-550062D01*
X5328412Y-552907D01*
X5312156Y-557580D01*
X5296509Y-564032D01*
X5281726Y-572211D01*
X5267909Y-582015D01*
X5255310Y-593293D01*
X5244033Y-605942D01*
X5234228Y-619709D01*
X5226050Y-634542D01*
X5219547Y-650138D01*
X5214874Y-666445D01*
X5212029Y-683107D01*
X5211114Y-700024D01*
X5212029Y-716889D01*
X5214874Y-733552D01*
X5219547Y-749858D01*
X5226050Y-765454D01*
X5234228Y-780288D01*
X5244033Y-794054D01*
X5255310Y-806704D01*
X5267909Y-817981D01*
X5281726Y-827786D01*
X5296509Y-835964D01*
X5312156Y-842416D01*
X5328412Y-847090D01*
X5345074Y-849934D01*
G37*
G36*
X6253581Y-850900D02*
G01*
X6502400Y-850900D01*
X6508750Y-850188D01*
X6514185Y-848258D01*
X6519113Y-845210D01*
X6523177Y-841095D01*
X6526276Y-836218D01*
X6528206Y-830732D01*
X6528917Y-824433D01*
X6528917Y-575564D01*
X6528206Y-569264D01*
X6526276Y-563778D01*
X6523177Y-558901D01*
X6519113Y-554786D01*
X6514185Y-551738D01*
X6508750Y-549808D01*
X6502400Y-549097D01*
X6253581Y-549097D01*
X6247231Y-549808D01*
X6241796Y-551738D01*
X6236868Y-554786D01*
X6232804Y-558901D01*
X6229705Y-563778D01*
X6227775Y-569264D01*
X6227064Y-575564D01*
X6227064Y-824433D01*
X6227775Y-830732D01*
X6229705Y-836218D01*
X6232804Y-841095D01*
X6236868Y-845210D01*
X6241796Y-848258D01*
X6247231Y-850188D01*
G37*
G36*
X8063534Y-850900D02*
G01*
X8312403Y-850900D01*
X8318753Y-850188D01*
X8324189Y-848258D01*
X8329117Y-845210D01*
X8333181Y-841095D01*
X8336280Y-836218D01*
X8338159Y-830732D01*
X8338870Y-824433D01*
X8338870Y-575564D01*
X8338159Y-569264D01*
X8336280Y-563778D01*
X8333181Y-558901D01*
X8329117Y-554786D01*
X8324189Y-551738D01*
X8318753Y-549808D01*
X8312403Y-549097D01*
X8063534Y-549097D01*
X8057235Y-549808D01*
X8051749Y-551738D01*
X8046872Y-554786D01*
X8042757Y-558901D01*
X8039709Y-563778D01*
X8037779Y-569264D01*
X8037068Y-575564D01*
X8037068Y-824433D01*
X8037779Y-830732D01*
X8039709Y-836218D01*
X8042757Y-841095D01*
X8046872Y-845210D01*
X8051749Y-848258D01*
X8057235Y-850188D01*
G37*

%LPD*%
G36*
X7859014Y-1978050D02*
G01*
X7851140Y-2000859D01*
X7869123Y-2018792D01*
X7891932Y-2010918D01*
G37*
G36*
X6006744Y-1970532D02*
G01*
X6017260Y-1992223D01*
X6042660Y-1992223D01*
X6053226Y-1970532D01*
G37*
G36*
X9076791Y-6980631D02*
G01*
X9075064Y-7002322D01*
X9125051Y-7002322D01*
X9123324Y-6980631D01*
G37*
G36*
X9256725Y-4630521D02*
G01*
X9254998Y-4652213D01*
X9304985Y-4652213D01*
X9303258Y-4630521D01*
G37*
G36*
X9304985Y-4867757D02*
G01*
X9254998Y-4867808D01*
X9256725Y-4889500D01*
X9303258Y-4889500D01*
G37*
G36*
X5157266Y-16137788D02*
G01*
X5146751Y-16159480D01*
X5193233Y-16159480D01*
X5182666Y-16137788D01*
G37*
G36*
X5157266Y-13777772D02*
G01*
X5146751Y-13799464D01*
X5193233Y-13799464D01*
X5182666Y-13777772D01*
G37*
G36*
X5157266Y-11247780D02*
G01*
X5146751Y-11269472D01*
X5193233Y-11269472D01*
X5182666Y-11247780D01*
G37*
G36*
X5097322Y-8767775D02*
G01*
X5086756Y-8789466D01*
X5133238Y-8789466D01*
X5122722Y-8767775D01*
G37*
G36*
X5435752Y-15932353D02*
G01*
X5426811Y-15954044D01*
X5473344Y-15954044D01*
X5464352Y-15932353D01*
G37*
G36*
X5426811Y-13595045D02*
G01*
X5435752Y-13616736D01*
X5464352Y-13616736D01*
X5473344Y-13595045D01*
G37*
G36*
X5464302Y-13532307D02*
G01*
X5435701Y-13532357D01*
X5426811Y-13554049D01*
X5473293Y-13553998D01*
G37*
G36*
X5479694Y-8530031D02*
G01*
X5458053Y-8539022D01*
X5490921Y-8571941D01*
X5499963Y-8550249D01*
G37*
G36*
X5436717Y-8590483D02*
G01*
X5447284Y-8612174D01*
X5472684Y-8612174D01*
X5483250Y-8590483D01*
G37*
G36*
X5447284Y-11015878D02*
G01*
X5432247Y-11034522D01*
X5477459Y-11045545D01*
X5472684Y-11022076D01*
G37*
G36*
X5426760Y-11080496D02*
G01*
X5435701Y-11102187D01*
X5464302Y-11102187D01*
X5473242Y-11080496D01*
G37*
G36*
X8409127Y-4821174D02*
G01*
X8391144Y-4839157D01*
X8399068Y-4861915D01*
X8431936Y-4829048D01*
G37*
G36*
X6770928Y-4028084D02*
G01*
X6738010Y-4060901D01*
X6760819Y-4068826D01*
X6778802Y-4050893D01*
G37*
G36*
X6466738Y-3850487D02*
G01*
X6477304Y-3872179D01*
X6502704Y-3872179D01*
X6513220Y-3850487D01*
G37*
G36*
X6536740Y-3750513D02*
G01*
X6547307Y-3772204D01*
X6572707Y-3772204D01*
X6583222Y-3750513D01*
G37*
G36*
X6596735Y-3870502D02*
G01*
X6607251Y-3892194D01*
X6632651Y-3892194D01*
X6643217Y-3870502D01*
G37*
G36*
X6676745Y-3820515D02*
G01*
X6687261Y-3842207D01*
X6712661Y-3842207D01*
X6723227Y-3820515D01*
G37*
G36*
X7346746Y-2010511D02*
G01*
X7357313Y-2032203D01*
X7382713Y-2032203D01*
X7393228Y-2010511D01*
G37*
G36*
X6880859Y-3861155D02*
G01*
X6858050Y-3869029D01*
X6890918Y-3901948D01*
X6898792Y-3879138D01*
G37*
G36*
X6950506Y-3956761D02*
G01*
X6950506Y-4003243D01*
X6972198Y-3992727D01*
X6972198Y-3967327D01*
G37*
G36*
X7440472Y-3716731D02*
G01*
X7440472Y-3763264D01*
X7462164Y-3752697D01*
X7462164Y-3727297D01*
G37*
G36*
X5897422Y-1974392D02*
G01*
X5852261Y-1985416D01*
X5867298Y-2004110D01*
X5892698Y-1997913D01*
G37*
G36*
X6989114Y-3731158D02*
G01*
X6971182Y-3749141D01*
X6979056Y-3771950D01*
X7011924Y-3739032D01*
G37*
G36*
X7059117Y-3681171D02*
G01*
X7041184Y-3699103D01*
X7049058Y-3721912D01*
X7081926Y-3689045D01*
G37*
G36*
X6009487Y-4476750D02*
G01*
X5987796Y-4482084D01*
X5987796Y-4517898D01*
X6009487Y-4523232D01*
G37*
G36*
X4762093Y-5567781D02*
G01*
X4756759Y-5589473D01*
X4803241Y-5589473D01*
X4797907Y-5567781D01*
G37*
G36*
X5773978Y-5552897D02*
G01*
X5819698Y-5608878D01*
X5848299Y-5608878D01*
X5893968Y-5552897D01*
G37*
G36*
X13079577Y-13116813D02*
G01*
X13026237Y-13123976D01*
X13026237Y-13223951D01*
X13079577Y-13231113D01*
G37*
G36*
X8002320Y-4079392D02*
G01*
X7984388Y-4097324D01*
X7990179Y-4180636D01*
X8085632Y-4085183D01*
G37*
G36*
X11254943Y-4889804D02*
G01*
X11275161Y-4987594D01*
X11484711Y-4987594D01*
X11504980Y-4889804D01*
G37*
G36*
X12170105Y-3534968D02*
G01*
X12072315Y-3555187D01*
X12072315Y-3764737D01*
X12170105Y-3785006D01*
G37*
D10*
X6929983Y-3980002D02*
G01*
X7059975Y-3980002D01*
X7809984Y-3229993D01*
X7809984Y-2059973D01*
X7889976Y-1979980D01*
X7080001Y-3719984D02*
G01*
X6029985Y-2669966D01*
X6029985Y-1950008D01*
D11*
X9100058Y-6960108D02*
G01*
X9100058Y-7420102D01*
X9279978Y-4909992D02*
G01*
X9279978Y-4609993D01*
D12*
X9769957Y-5659970D02*
G01*
X9614992Y-5505005D01*
X9614992Y-4834991D01*
X9795992Y-3049955D02*
G01*
X9795992Y-4073977D01*
X9784989Y-4084977D01*
X11849856Y-5659884D02*
G01*
X10709907Y-5659884D01*
X10210043Y-5160007D01*
X10210043Y-4084980D01*
X9784994Y-4084980D01*
X11379956Y-5080000D02*
G01*
X11379956Y-3155970D01*
X11273967Y-3049981D01*
D10*
X4949952Y-5579871D02*
G01*
X4249927Y-6279895D01*
X4240011Y-14543222D01*
D13*
X5833976Y-5499986D02*
G01*
X5833976Y-8195993D01*
X5459984Y-8569985D01*
D14*
X4780000Y-5609996D02*
G01*
X4780000Y-5249948D01*
X5529955Y-4499990D01*
X6029982Y-4499990D01*
D13*
X5450077Y-13574521D02*
G01*
X5450077Y-15974568D01*
D10*
X7009993Y-3769995D02*
G01*
X5879988Y-2639994D01*
X5879988Y-1969996D01*
X5869988Y-1959996D01*
X7369987Y-1989988D02*
G01*
X7369987Y-3549990D01*
X7069985Y-3849992D01*
X6909981Y-3849992D01*
X6859981Y-3899992D01*
X7419975Y-3739997D02*
G01*
X7644993Y-3739997D01*
X8079993Y-4174997D01*
X6739890Y-4029963D02*
G01*
X7219950Y-4510023D01*
X8081009Y-4510023D01*
X8338565Y-4767579D01*
X8329929Y-4759960D02*
G01*
X8430006Y-4860036D01*
X5450001Y-11059972D02*
G01*
X5459984Y-11049990D01*
X5459984Y-8569982D01*
D13*
X5450001Y-11059972D02*
G01*
X5450001Y-13574448D01*
X5450072Y-13574519D01*
D10*
X6699981Y-3799992D02*
G01*
X6699981Y-3929918D01*
X6679951Y-3949954D01*
X6679951Y-4519929D01*
X6400043Y-4800092D01*
X5800092Y-4800092D01*
X5700019Y-4899911D01*
X5700019Y-8079996D01*
X5109997Y-8670018D01*
X5109997Y-8809989D01*
X6619976Y-3850004D02*
G01*
X6619976Y-4500143D01*
X6370065Y-4750054D01*
X5679950Y-4750054D01*
X5089908Y-5340095D01*
X5089906Y-5579871D01*
X5089906Y-5579871D02*
G01*
X5089906Y-5599937D01*
X4389881Y-6299962D01*
X4389881Y-7362697D01*
X4389881Y-9889744D01*
X4573015Y-10073131D01*
X5089908Y-5579869D02*
G01*
X5089908Y-5599937D01*
X4389884Y-6299962D01*
X4389884Y-9889746D01*
X4573015Y-10073134D01*
X5169992Y-10670108D01*
X5169992Y-11289969D01*
X5029961Y-5579871D02*
G01*
X4320031Y-6290055D01*
X4320031Y-11907265D01*
X4320031Y-12268708D01*
X4378706Y-12327381D01*
X4447031Y-12395708D01*
X4573777Y-12522708D01*
X6559981Y-3729989D02*
G01*
X6559981Y-4460003D01*
X6339992Y-4679993D01*
X5649986Y-4679993D01*
X5029995Y-5299986D01*
X5029995Y-5579988D01*
X5029956Y-5579869D02*
G01*
X4320034Y-6290053D01*
X4320034Y-12268708D01*
X4447034Y-12395708D01*
X4573772Y-12522708D01*
X5169992Y-13118927D01*
X5169992Y-13819962D01*
X4572990Y-16202967D02*
G01*
X4572990Y-16217468D01*
X6489979Y-3829989D02*
G01*
X6489979Y-4399998D01*
X6289923Y-4600054D01*
X5619874Y-4600054D01*
X4969890Y-5250042D01*
X4969890Y-5559920D01*
X4970018Y-5559805D02*
G01*
X4949952Y-5579871D01*
X4949952Y-5579871D02*
G01*
X4249927Y-6279895D01*
X4240011Y-14543222D01*
X5169989Y-15473199D01*
X5169989Y-16179967D01*
D12*
X13339970Y-7769987D02*
G01*
X11879971Y-7769987D01*
X9769957Y-5659973D01*
X13349980Y-5819899D02*
G01*
X13349980Y-6059934D01*
X12659865Y-6059934D01*
X12659865Y-3659987D01*
X11979909Y-3659987D01*
X12689941Y-1650105D02*
G01*
X11649113Y-2700045D01*
X10880191Y-2700045D01*
X10765967Y-2814269D01*
X10765967Y-3049981D01*
D15*
X13129971Y-13173963D02*
G01*
X12729972Y-13173963D01*
D12*
X11709976Y-1479997D02*
G01*
X11709908Y-960120D01*
X12640056Y-960120D01*
X13809979Y-2130044D01*
X13809979Y-6800087D01*
X13499845Y-6800087D01*
D16*
X13340079Y-7770113D02*
G01*
X14530070Y-7770113D01*
X14619986Y-7679689D01*
X14619986Y-1700021D01*
X14150086Y-1700021D01*
X12750038Y-299720D01*
X10919978Y-299999D01*
X10919978Y-1569996D01*
X10859978Y-1629996D01*
D17*
G01*
X11709984Y-1480007D03*
G01*
X12689966Y-1630019D03*
G01*
X10729975Y-1630019D03*
D18*
G01*
X10303992Y-3049955D03*
G01*
X9795992Y-3049955D03*
D17*
G01*
X9614992Y-4834991D03*
G01*
X9784994Y-4084980D03*
D20*
G01*
X10765967Y-3049981D03*
G01*
X11273967Y-3049981D03*
D21*
G01*
X1899996Y-14139976D03*
G01*
X1899996Y-13885976D03*
G01*
X1899996Y-14393976D03*
D17*
G01*
X13349960Y-5819978D03*
G01*
X13349960Y-8749969D03*
G01*
X13339978Y-7769987D03*
G01*
X13499972Y-6799986D03*
D22*
G01*
X11979909Y-3659987D03*
G01*
X11379961Y-5080000D03*
G01*
X10779963Y-4880000D03*
G01*
X11979960Y-4880000D03*
G01*
X10780013Y-3659987D03*
D21*
G01*
X4826990Y-8690483D03*
G01*
X4572990Y-8563483D03*
G01*
X4826990Y-8436483D03*
G01*
X4572990Y-8309483D03*
G01*
X4826990Y-8182483D03*
G01*
X4572990Y-8817483D03*
G01*
X4826990Y-11190478D03*
G01*
X4572990Y-11063478D03*
G01*
X4826990Y-10936478D03*
G01*
X4572990Y-10809478D03*
G01*
X4826990Y-10682478D03*
G01*
X4572990Y-11317478D03*
G01*
X4826990Y-13690472D03*
G01*
X4572990Y-13563472D03*
G01*
X4826990Y-13436472D03*
G01*
X4572990Y-13309472D03*
G01*
X4826990Y-13182472D03*
G01*
X4572990Y-13817472D03*
G01*
X4826990Y-16090468D03*
G01*
X4572990Y-15963468D03*
G01*
X4826990Y-15836468D03*
G01*
X4572990Y-15709468D03*
G01*
X4826990Y-15582468D03*
G01*
X4572990Y-16217468D03*
D23*
G01*
X8187983Y-699999D03*
D12*
G01*
X7680020Y-699998D03*
G01*
X7172020Y-699998D03*
D23*
G01*
X6377986Y-699999D03*
D12*
G01*
X5869990Y-699998D03*
G01*
X5361990Y-699998D03*
D20*
G01*
X8079993Y-4174997D03*
G01*
X8079993Y-3920997D03*
G01*
X8079993Y-3666997D03*
G01*
X8079993Y-3412997D03*
G01*
X8079993Y-3158997D03*
D24*
G01*
X8079993Y-2904997D03*
D21*
G01*
X1899996Y-6829983D03*
G01*
X1899996Y-6575983D03*
G01*
X1899996Y-7083983D03*
G01*
X1899996Y-10549991D03*
G01*
X1899996Y-10295991D03*
G01*
X1899996Y-10803991D03*
G01*
X10859973Y-18139968D03*
G01*
X10605973Y-18139968D03*
G01*
X11113973Y-18139968D03*
G01*
X4090009Y-18139943D03*
G01*
X3836009Y-18139943D03*
G01*
X4344009Y-18139943D03*
G01*
X13129971Y-12919963D03*
G01*
X13129971Y-13173963D03*
G01*
X13129971Y-12665963D03*
G01*
X7549972Y-18139968D03*
G01*
X7295972Y-18139968D03*
G01*
X7803972Y-18139968D03*
D12*
G01*
X9769957Y-5659983D03*
G01*
X11849963Y-5659983D03*
G01*
X10569956Y-10160000D03*
G01*
X9769957Y-10160000D03*
D25*
G01*
X5325999Y-5499988D03*
D18*
G01*
X5579973Y-5499988D03*
G01*
X5833973Y-5499988D03*
D17*
G01*
X2523972Y-3364001D03*
G01*
X2523972Y-5396001D03*
G01*
X4555972Y-4634001D03*
G01*
X4555972Y-4126001D03*
D26*
G01*
X3999991Y-1199997D03*
G01*
X3699992Y-1199997D03*
G01*
X6759981Y-4399991D03*
G01*
X6869988Y-3280003D03*
G01*
X5719978Y-2229993D03*
G01*
X5389981Y-4109999D03*
G01*
X5679998Y-8579993D03*
G01*
X8029981Y-2229993D03*
G01*
X6159982Y-2240000D03*
G01*
X4299991Y-1199997D03*
G01*
X4599990Y-1199997D03*
G01*
X4599990Y-899998D03*
G01*
X4299991Y-899998D03*
G01*
X3699992Y-599998D03*
G01*
X3999991Y-599998D03*
G01*
X4299991Y-599998D03*
G01*
X4599990Y-599998D03*
G01*
X4599990Y-299999D03*
G01*
X4299991Y-299999D03*
G01*
X3999991Y-299999D03*
G01*
X3699992Y-299999D03*
G01*
X3399993Y-299999D03*
G01*
X3099993Y-299999D03*
G01*
X2799994Y-299999D03*
G01*
X2499995Y-299999D03*
G01*
X2499995Y-599998D03*
G01*
X2499995Y-899998D03*
G01*
X2199995Y-899998D03*
G01*
X2199995Y-599998D03*
G01*
X2199995Y-299999D03*
G01*
X1899996Y-299999D03*
G01*
X1899996Y-599998D03*
G01*
X1899996Y-899998D03*
G01*
X2199995Y-1159992D03*
G01*
X1599996Y-299999D03*
G01*
X1599996Y-599998D03*
G01*
X1599996Y-899998D03*
G01*
X1599996Y-1199997D03*
G01*
X8809990Y-9389973D03*
G01*
X4780000Y-5609996D03*
G01*
X6029985Y-4499990D03*
G01*
X7079995Y-3719982D03*
G01*
X7009993Y-3769995D03*
G01*
X5869990Y-1959990D03*
G01*
X7419975Y-3739997D03*
G01*
X6929983Y-3980002D03*
G01*
X6859981Y-3899992D03*
G01*
X7369987Y-1989988D03*
G01*
X6699986Y-3799992D03*
G01*
X6619976Y-3850004D03*
G01*
X6559981Y-3729989D03*
G01*
X6489979Y-3829989D03*
G01*
X7679994Y-4259986D03*
G01*
X6739991Y-4029989D03*
G01*
X8429980Y-4859985D03*
G01*
X7509992Y-2240000D03*
G01*
X5450001Y-11059972D03*
G01*
X5459984Y-8569985D03*
G01*
X5450077Y-13574521D03*
G01*
X5450077Y-15974568D03*
G01*
X5109997Y-8809989D03*
G01*
X2499995Y-1170000D03*
G01*
X5169992Y-11289969D03*
G01*
X5169992Y-13819962D03*
G01*
X5169992Y-16179977D03*
G01*
X5019979Y-7289977D03*
G01*
X6779996Y-8009991D03*
G01*
X9829977Y-8499983D03*
G01*
X3110001Y-6019977D03*
G01*
X1819986Y-5299989D03*
G01*
X9279991Y-4909997D03*
G01*
X9279991Y-4609998D03*
G01*
X9100058Y-6960108D03*
G01*
X10899978Y-10100005D03*
G01*
X12729972Y-13173963D03*
G01*
X6029985Y-1950008D03*
G01*
X7889976Y-1979980D03*
M02*
