G04 Layer: TopPasteMaskLayer*
G04 EasyEDA v6.5.54, 2026-04-15 14:19:41*
G04 f99edf9f5cd84b74b57bf5261354b4ee,5dced3e560e646c4aeb98d0811621806,10*
G04 Gerber Generator version 0.2*
G04 Scale: 100 percent, Rotated: No, Reflected: No *
G04 Dimensions in millimeters *
G04 leading zeros omitted , absolute positions ,4 integer and 5 decimal *
%FSLAX45Y45*%
%MOMM*%

%AMMACRO1*21,1,$1,$2,0,0,$3*%
%ADD10R,2.0000X2.0000*%
%ADD11R,0.9000X0.8000*%
%ADD12R,0.8000X0.8000*%
%ADD13R,2.8000X1.1000*%
%ADD14R,1.1000X2.8000*%
%ADD15R,4.2000X1.4000*%
%ADD16R,0.8000X0.9000*%
%ADD17O,0.364007X2.01549*%
%ADD18R,0.6000X1.0700*%
%ADD19R,0.0176X1.0700*%
%ADD20R,1.6800X1.5200*%
%ADD21R,3.2600X1.1500*%
%ADD22MACRO1,2.165X0.91X90.0000*%
%ADD23R,0.9100X2.1650*%
%ADD24MACRO1,0.532X1.0375X90.0000*%
%ADD25R,1.4000X2.3000*%
%ADD26R,5.8000X6.2000*%
%ADD27MACRO1,2.241X2.0475X-90.0000*%
%ADD28R,2.0475X2.2410*%
%ADD29R,0.9093X1.2192*%
%ADD30O,0.799998X1.599997*%
%ADD31R,1.6500X4.5000*%

%LPD*%
G36*
X1785010Y-1534972D02*
G01*
X1775002Y-1544980D01*
X1775002Y-1653235D01*
X1785010Y-1663242D01*
X2034997Y-1663242D01*
X2045004Y-1653235D01*
X2045004Y-1544980D01*
X2034997Y-1534972D01*
X1965909Y-1534972D01*
X1955901Y-1544980D01*
X1955901Y-1568602D01*
X1945893Y-1578610D01*
X1874113Y-1578610D01*
X1864106Y-1568602D01*
X1864106Y-1544980D01*
X1854098Y-1534972D01*
G37*
G36*
X1785010Y-1056741D02*
G01*
X1775002Y-1066749D01*
X1775002Y-1175004D01*
X1785010Y-1185011D01*
X1854098Y-1185011D01*
X1864106Y-1175004D01*
X1864106Y-1151382D01*
X1874113Y-1141374D01*
X1945893Y-1141374D01*
X1955901Y-1151382D01*
X1955901Y-1175004D01*
X1965909Y-1185011D01*
X2034997Y-1185011D01*
X2045004Y-1175004D01*
X2045004Y-1066749D01*
X2034997Y-1056741D01*
G37*
G36*
X5420004Y-8855506D02*
G01*
X5414975Y-8860485D01*
X5414975Y-8940495D01*
X5420004Y-8945473D01*
X5442813Y-8945473D01*
X5442813Y-8908491D01*
X5475782Y-8908491D01*
X5475782Y-8945473D01*
X5500014Y-8945473D01*
X5504992Y-8940495D01*
X5504992Y-8860485D01*
X5500014Y-8855506D01*
G37*
G36*
X5420004Y-9014460D02*
G01*
X5414975Y-9019489D01*
X5414975Y-9099499D01*
X5420004Y-9104477D01*
X5499963Y-9104477D01*
X5504992Y-9099499D01*
X5504992Y-9019489D01*
X5499963Y-9014460D01*
X5477205Y-9014460D01*
X5477205Y-9051493D01*
X5444185Y-9051493D01*
X5444185Y-9014460D01*
G37*
G36*
X5020005Y-9004503D02*
G01*
X5014976Y-9009481D01*
X5014976Y-9089491D01*
X5020005Y-9094470D01*
X5099964Y-9094470D01*
X5104993Y-9089491D01*
X5104993Y-9009481D01*
X5099964Y-9004503D01*
X5077206Y-9004503D01*
X5077206Y-9041485D01*
X5044186Y-9041485D01*
X5044186Y-9004503D01*
G37*
G36*
X5020005Y-8845499D02*
G01*
X5014976Y-8850477D01*
X5014976Y-8930487D01*
X5020005Y-8935466D01*
X5042763Y-8935466D01*
X5042763Y-8898483D01*
X5075783Y-8898483D01*
X5075783Y-8935466D01*
X5100015Y-8935466D01*
X5104993Y-8930487D01*
X5104993Y-8850477D01*
X5100015Y-8845499D01*
G37*
G36*
X5039969Y-11494465D02*
G01*
X5034991Y-11499494D01*
X5034991Y-11579504D01*
X5039969Y-11584482D01*
X5119979Y-11584482D01*
X5125008Y-11579504D01*
X5125008Y-11499494D01*
X5119979Y-11494465D01*
X5097170Y-11494465D01*
X5097170Y-11531498D01*
X5064201Y-11531498D01*
X5064201Y-11494465D01*
G37*
G36*
X5039969Y-11335461D02*
G01*
X5034991Y-11340490D01*
X5034991Y-11420449D01*
X5039969Y-11425478D01*
X5062778Y-11425478D01*
X5062778Y-11388496D01*
X5095798Y-11388496D01*
X5095798Y-11425478D01*
X5119979Y-11425478D01*
X5125008Y-11420449D01*
X5125008Y-11340490D01*
X5119979Y-11335461D01*
G37*
G36*
X5049977Y-14034465D02*
G01*
X5044998Y-14039494D01*
X5044998Y-14119453D01*
X5049977Y-14124482D01*
X5129987Y-14124482D01*
X5134965Y-14119453D01*
X5134965Y-14039494D01*
X5129987Y-14034465D01*
X5107178Y-14034465D01*
X5107178Y-14071447D01*
X5074208Y-14071447D01*
X5074208Y-14034465D01*
G37*
G36*
X5049977Y-13875461D02*
G01*
X5044998Y-13880490D01*
X5044998Y-13960449D01*
X5049977Y-13965478D01*
X5072786Y-13965478D01*
X5072786Y-13928445D01*
X5105806Y-13928445D01*
X5105806Y-13965478D01*
X5129987Y-13965478D01*
X5134965Y-13960449D01*
X5134965Y-13880490D01*
X5129987Y-13875461D01*
G37*
G36*
X5049977Y-16404488D02*
G01*
X5044998Y-16409466D01*
X5044998Y-16489476D01*
X5049977Y-16494455D01*
X5129987Y-16494455D01*
X5134965Y-16489476D01*
X5134965Y-16409466D01*
X5129987Y-16404488D01*
X5107178Y-16404488D01*
X5107178Y-16441470D01*
X5074208Y-16441470D01*
X5074208Y-16404488D01*
G37*
G36*
X5049977Y-16245484D02*
G01*
X5044998Y-16250462D01*
X5044998Y-16330472D01*
X5049977Y-16335451D01*
X5072786Y-16335451D01*
X5072786Y-16298468D01*
X5105806Y-16298468D01*
X5105806Y-16335451D01*
X5129987Y-16335451D01*
X5134965Y-16330472D01*
X5134965Y-16250462D01*
X5129987Y-16245484D01*
G37*
G36*
X7939481Y-4634992D02*
G01*
X7934502Y-4639970D01*
X7934502Y-4662779D01*
X7971485Y-4662779D01*
X7971485Y-4695799D01*
X7934502Y-4695799D01*
X7934502Y-4719980D01*
X7939481Y-4725009D01*
X8019491Y-4725009D01*
X8024469Y-4719980D01*
X8024469Y-4639970D01*
X8019491Y-4634992D01*
G37*
G36*
X7780477Y-4634992D02*
G01*
X7775498Y-4639970D01*
X7775498Y-4719980D01*
X7780477Y-4725009D01*
X7860487Y-4725009D01*
X7865465Y-4719980D01*
X7865465Y-4697171D01*
X7828483Y-4697171D01*
X7828483Y-4664202D01*
X7865465Y-4664202D01*
X7865465Y-4639970D01*
X7860487Y-4634992D01*
G37*
G36*
X5229961Y-9004503D02*
G01*
X5224983Y-9009481D01*
X5224983Y-9089491D01*
X5229961Y-9094470D01*
X5309971Y-9094470D01*
X5315000Y-9089491D01*
X5315000Y-9009481D01*
X5309971Y-9004503D01*
X5287213Y-9004503D01*
X5287213Y-9041485D01*
X5254193Y-9041485D01*
X5254193Y-9004503D01*
G37*
G36*
X5230012Y-8845499D02*
G01*
X5224983Y-8850477D01*
X5224983Y-8930487D01*
X5230012Y-8935466D01*
X5252770Y-8935466D01*
X5252770Y-8898483D01*
X5285790Y-8898483D01*
X5285790Y-8935466D01*
X5309971Y-8935466D01*
X5315000Y-8930487D01*
X5315000Y-8850477D01*
X5309971Y-8845499D01*
G37*
G36*
X5229961Y-11494465D02*
G01*
X5224983Y-11499494D01*
X5224983Y-11579453D01*
X5229961Y-11584482D01*
X5309971Y-11584482D01*
X5315000Y-11579453D01*
X5315000Y-11499494D01*
X5309971Y-11494465D01*
X5287213Y-11494465D01*
X5287213Y-11531498D01*
X5254193Y-11531498D01*
X5254193Y-11494465D01*
G37*
G36*
X5230012Y-11335461D02*
G01*
X5224983Y-11340490D01*
X5224983Y-11420449D01*
X5230012Y-11425478D01*
X5252770Y-11425478D01*
X5252770Y-11388496D01*
X5285790Y-11388496D01*
X5285790Y-11425478D01*
X5309971Y-11425478D01*
X5315000Y-11420449D01*
X5315000Y-11340490D01*
X5309971Y-11335461D01*
G37*
G36*
X5239969Y-14034465D02*
G01*
X5234990Y-14039494D01*
X5234990Y-14119453D01*
X5239969Y-14124482D01*
X5319979Y-14124482D01*
X5325008Y-14119453D01*
X5325008Y-14039494D01*
X5319979Y-14034465D01*
X5297170Y-14034465D01*
X5297170Y-14071447D01*
X5264200Y-14071447D01*
X5264200Y-14034465D01*
G37*
G36*
X5239969Y-13875461D02*
G01*
X5234990Y-13880490D01*
X5234990Y-13960449D01*
X5239969Y-13965478D01*
X5262778Y-13965478D01*
X5262778Y-13928445D01*
X5295798Y-13928445D01*
X5295798Y-13965478D01*
X5319979Y-13965478D01*
X5325008Y-13960449D01*
X5325008Y-13880490D01*
X5319979Y-13875461D01*
G37*
G36*
X5239969Y-16404488D02*
G01*
X5234990Y-16409466D01*
X5234990Y-16489476D01*
X5239969Y-16494455D01*
X5319979Y-16494455D01*
X5325008Y-16489476D01*
X5325008Y-16409466D01*
X5319979Y-16404488D01*
X5297170Y-16404488D01*
X5297170Y-16441470D01*
X5264200Y-16441470D01*
X5264200Y-16404488D01*
G37*
G36*
X5239969Y-16245484D02*
G01*
X5234990Y-16250462D01*
X5234990Y-16330472D01*
X5239969Y-16335451D01*
X5262778Y-16335451D01*
X5262778Y-16298468D01*
X5295798Y-16298468D01*
X5295798Y-16335451D01*
X5319979Y-16335451D01*
X5325008Y-16330472D01*
X5325008Y-16250462D01*
X5319979Y-16245484D01*
G37*
G36*
X6829958Y-3104489D02*
G01*
X6824980Y-3109518D01*
X6824980Y-3189478D01*
X6829958Y-3194507D01*
X6909968Y-3194507D01*
X6914997Y-3189478D01*
X6914997Y-3109518D01*
X6909968Y-3104489D01*
X6887209Y-3104489D01*
X6887209Y-3141472D01*
X6854190Y-3141472D01*
X6854190Y-3104489D01*
G37*
G36*
X6830009Y-2945485D02*
G01*
X6824980Y-2950514D01*
X6824980Y-3030474D01*
X6830009Y-3035503D01*
X6852767Y-3035503D01*
X6852767Y-2998470D01*
X6885787Y-2998470D01*
X6885787Y-3035503D01*
X6909968Y-3035503D01*
X6914997Y-3030474D01*
X6914997Y-2950514D01*
X6909968Y-2945485D01*
G37*
G36*
X7959496Y-4974996D02*
G01*
X7954467Y-4979974D01*
X7954467Y-5002784D01*
X7991500Y-5002784D01*
X7991500Y-5035804D01*
X7954467Y-5035804D01*
X7954467Y-5059984D01*
X7959496Y-5065014D01*
X8039506Y-5065014D01*
X8044484Y-5059984D01*
X8044484Y-4979974D01*
X8039506Y-4974996D01*
G37*
G36*
X7800492Y-4974996D02*
G01*
X7795463Y-4979974D01*
X7795463Y-5059984D01*
X7800492Y-5065014D01*
X7880502Y-5065014D01*
X7885480Y-5059984D01*
X7885480Y-5037175D01*
X7848498Y-5037175D01*
X7848498Y-5004206D01*
X7885480Y-5004206D01*
X7885480Y-4979974D01*
X7880502Y-4974996D01*
G37*
G36*
X12455956Y-9830003D02*
G01*
X12450978Y-9834981D01*
X12450978Y-9949992D01*
X12455956Y-9954971D01*
X12497968Y-9954463D01*
X12497968Y-9910470D01*
X12542977Y-9910470D01*
X12542977Y-9955479D01*
X12583972Y-9954971D01*
X12588951Y-9949992D01*
X12588951Y-9834981D01*
X12583972Y-9830003D01*
G37*
G36*
X12455956Y-10044988D02*
G01*
X12450978Y-10049967D01*
X12450978Y-10164978D01*
X12455956Y-10169956D01*
X12583972Y-10169956D01*
X12588951Y-10164978D01*
X12588951Y-10049967D01*
X12583972Y-10044988D01*
X12542977Y-10045496D01*
X12542977Y-10089489D01*
X12497968Y-10089489D01*
X12497968Y-10044988D01*
G37*
G36*
X10449966Y-3984498D02*
G01*
X10444988Y-3989476D01*
X10444988Y-4069486D01*
X10449966Y-4074515D01*
X10529976Y-4074515D01*
X10534954Y-4069486D01*
X10534954Y-3989476D01*
X10529976Y-3984498D01*
X10507167Y-3984498D01*
X10507167Y-4021480D01*
X10474198Y-4021480D01*
X10474198Y-3984498D01*
G37*
G36*
X10449966Y-3825494D02*
G01*
X10444988Y-3830472D01*
X10444988Y-3910482D01*
X10449966Y-3915511D01*
X10472775Y-3915511D01*
X10472775Y-3878478D01*
X10505795Y-3878478D01*
X10505795Y-3915511D01*
X10529976Y-3915511D01*
X10534954Y-3910482D01*
X10534954Y-3830472D01*
X10529976Y-3825494D01*
G37*
G36*
X1569516Y-3474974D02*
G01*
X1564487Y-3480003D01*
X1564487Y-3502812D01*
X1601520Y-3502812D01*
X1601520Y-3535781D01*
X1564487Y-3535781D01*
X1564487Y-3560013D01*
X1569516Y-3564991D01*
X1649475Y-3564991D01*
X1654505Y-3560013D01*
X1654505Y-3480003D01*
X1649475Y-3474974D01*
G37*
G36*
X1410512Y-3474974D02*
G01*
X1405483Y-3480003D01*
X1405483Y-3560013D01*
X1410512Y-3564991D01*
X1490472Y-3564991D01*
X1495501Y-3560013D01*
X1495501Y-3537204D01*
X1458518Y-3537204D01*
X1458518Y-3504184D01*
X1495501Y-3504184D01*
X1495501Y-3480003D01*
X1490472Y-3474974D01*
G37*
G36*
X7560005Y-2792018D02*
G01*
X7554975Y-2796997D01*
X7554975Y-2877007D01*
X7560005Y-2881985D01*
X7582763Y-2881985D01*
X7582763Y-2845003D01*
X7615783Y-2845003D01*
X7615783Y-2881985D01*
X7639964Y-2881985D01*
X7644993Y-2877007D01*
X7644993Y-2796997D01*
X7639964Y-2792018D01*
G37*
G36*
X7560005Y-2951022D02*
G01*
X7554975Y-2956001D01*
X7554975Y-3036011D01*
X7560005Y-3040989D01*
X7639964Y-3040989D01*
X7644993Y-3036011D01*
X7644993Y-2956001D01*
X7639964Y-2951022D01*
X7617206Y-2951022D01*
X7617206Y-2988005D01*
X7584186Y-2988005D01*
X7584186Y-2951022D01*
G37*
G36*
X7769961Y-2951022D02*
G01*
X7764983Y-2956001D01*
X7764983Y-3036011D01*
X7769961Y-3040989D01*
X7849971Y-3040989D01*
X7855000Y-3036011D01*
X7855000Y-2956001D01*
X7849971Y-2951022D01*
X7827162Y-2951022D01*
X7827162Y-2988005D01*
X7794193Y-2988005D01*
X7794193Y-2951022D01*
G37*
G36*
X7769961Y-2792018D02*
G01*
X7764983Y-2796997D01*
X7764983Y-2877007D01*
X7769961Y-2881985D01*
X7792770Y-2881985D01*
X7792770Y-2845003D01*
X7825790Y-2845003D01*
X7825790Y-2881985D01*
X7849971Y-2881985D01*
X7855000Y-2877007D01*
X7855000Y-2796997D01*
X7849971Y-2792018D01*
G37*
G36*
X6117844Y-1912213D02*
G01*
X6112865Y-1917192D01*
X6112865Y-1997202D01*
X6117844Y-2002180D01*
X6140653Y-2002180D01*
X6140653Y-1965198D01*
X6173673Y-1965198D01*
X6173673Y-2002180D01*
X6197854Y-2002180D01*
X6202883Y-1997202D01*
X6202883Y-1917192D01*
X6197854Y-1912213D01*
G37*
G36*
X6117844Y-2071217D02*
G01*
X6112865Y-2076196D01*
X6112865Y-2156206D01*
X6117844Y-2161184D01*
X6197854Y-2161184D01*
X6202883Y-2156206D01*
X6202883Y-2076196D01*
X6197854Y-2071217D01*
X6175044Y-2071217D01*
X6175044Y-2108200D01*
X6142075Y-2108200D01*
X6142075Y-2071217D01*
G37*
G36*
X5682843Y-1912213D02*
G01*
X5677865Y-1917192D01*
X5677865Y-1997202D01*
X5682843Y-2002180D01*
X5705652Y-2002180D01*
X5705652Y-1965198D01*
X5738672Y-1965198D01*
X5738672Y-2002180D01*
X5762853Y-2002180D01*
X5767882Y-1997202D01*
X5767882Y-1917192D01*
X5762853Y-1912213D01*
G37*
G36*
X5682843Y-2071217D02*
G01*
X5677865Y-2076196D01*
X5677865Y-2156206D01*
X5682843Y-2161184D01*
X5762853Y-2161184D01*
X5767882Y-2156206D01*
X5767882Y-2076196D01*
X5762853Y-2071217D01*
X5740044Y-2071217D01*
X5740044Y-2108200D01*
X5707075Y-2108200D01*
X5707075Y-2071217D01*
G37*
G36*
X7987487Y-1912213D02*
G01*
X7982508Y-1917192D01*
X7982508Y-1997202D01*
X7987487Y-2002180D01*
X8010296Y-2002180D01*
X8010296Y-1965198D01*
X8043265Y-1965198D01*
X8043265Y-2002180D01*
X8067497Y-2002180D01*
X8072475Y-1997202D01*
X8072475Y-1917192D01*
X8067497Y-1912213D01*
G37*
G36*
X7987487Y-2071217D02*
G01*
X7982458Y-2076196D01*
X7982458Y-2156206D01*
X7987487Y-2161184D01*
X8067497Y-2161184D01*
X8072475Y-2156206D01*
X8072475Y-2076196D01*
X8067497Y-2071217D01*
X8044688Y-2071217D01*
X8044688Y-2108200D01*
X8011668Y-2108200D01*
X8011668Y-2071217D01*
G37*
G36*
X7466380Y-1912213D02*
G01*
X7461351Y-1917192D01*
X7461351Y-1997202D01*
X7466380Y-2002180D01*
X7489190Y-2002180D01*
X7489190Y-1965198D01*
X7522159Y-1965198D01*
X7522159Y-2002180D01*
X7546390Y-2002180D01*
X7551369Y-1997202D01*
X7551369Y-1917192D01*
X7546390Y-1912213D01*
G37*
G36*
X7466380Y-2071217D02*
G01*
X7461351Y-2076196D01*
X7461351Y-2156206D01*
X7466380Y-2161184D01*
X7546390Y-2161184D01*
X7551369Y-2156206D01*
X7551369Y-2076196D01*
X7546390Y-2071217D01*
X7523581Y-2071217D01*
X7523581Y-2108200D01*
X7490561Y-2108200D01*
X7490561Y-2071217D01*
G37*
G36*
X1410512Y-3265017D02*
G01*
X1405483Y-3269996D01*
X1405483Y-3350006D01*
X1410512Y-3354984D01*
X1490472Y-3354984D01*
X1495501Y-3350006D01*
X1495501Y-3327196D01*
X1458518Y-3327196D01*
X1458518Y-3294176D01*
X1495501Y-3294176D01*
X1495501Y-3269996D01*
X1490472Y-3265017D01*
G37*
G36*
X1569516Y-3265017D02*
G01*
X1564487Y-3269996D01*
X1564487Y-3292805D01*
X1601520Y-3292805D01*
X1601520Y-3325774D01*
X1564487Y-3325774D01*
X1564487Y-3350006D01*
X1569516Y-3354984D01*
X1649475Y-3354984D01*
X1654505Y-3350006D01*
X1654505Y-3269996D01*
X1649475Y-3265017D01*
G37*
G36*
X1549501Y-5484977D02*
G01*
X1544472Y-5490006D01*
X1544472Y-5512765D01*
X1581505Y-5512765D01*
X1581505Y-5545785D01*
X1544472Y-5545785D01*
X1544472Y-5570016D01*
X1549501Y-5574995D01*
X1629511Y-5574995D01*
X1634489Y-5570016D01*
X1634489Y-5490006D01*
X1629511Y-5484977D01*
G37*
G36*
X1390497Y-5484977D02*
G01*
X1385519Y-5490006D01*
X1385519Y-5569966D01*
X1390497Y-5574995D01*
X1470507Y-5574995D01*
X1475486Y-5569966D01*
X1475486Y-5547207D01*
X1438503Y-5547207D01*
X1438503Y-5514187D01*
X1475486Y-5514187D01*
X1475486Y-5490006D01*
X1470507Y-5484977D01*
G37*
G36*
X5764987Y-5931001D02*
G01*
X5760008Y-5935980D01*
X5760008Y-6063996D01*
X5764987Y-6068974D01*
X5879998Y-6068974D01*
X5884976Y-6063996D01*
X5884468Y-6021984D01*
X5840476Y-6021984D01*
X5840476Y-5976975D01*
X5885484Y-5976975D01*
X5884976Y-5935980D01*
X5879998Y-5931001D01*
G37*
G36*
X5979972Y-5931001D02*
G01*
X5974994Y-5935980D01*
X5975502Y-5976975D01*
X6019495Y-5976975D01*
X6019495Y-6021984D01*
X5974994Y-6021984D01*
X5974994Y-6063996D01*
X5979972Y-6068974D01*
X6094984Y-6068974D01*
X6100013Y-6063996D01*
X6100013Y-5935980D01*
X6094984Y-5931001D01*
G37*
G36*
X5420004Y-16255441D02*
G01*
X5414975Y-16260470D01*
X5414975Y-16340480D01*
X5420004Y-16345458D01*
X5442762Y-16345458D01*
X5442762Y-16308476D01*
X5475782Y-16308476D01*
X5475782Y-16345458D01*
X5499963Y-16345458D01*
X5504992Y-16340480D01*
X5504992Y-16260470D01*
X5499963Y-16255441D01*
G37*
G36*
X5420004Y-16414445D02*
G01*
X5414975Y-16419474D01*
X5414975Y-16499484D01*
X5420004Y-16504462D01*
X5499963Y-16504462D01*
X5504992Y-16499484D01*
X5504992Y-16419474D01*
X5499963Y-16414445D01*
X5477205Y-16414445D01*
X5477205Y-16451478D01*
X5444185Y-16451478D01*
X5444185Y-16414445D01*
G37*
G36*
X5420004Y-13875461D02*
G01*
X5414975Y-13880490D01*
X5414975Y-13960449D01*
X5420004Y-13965478D01*
X5442813Y-13965478D01*
X5442813Y-13928445D01*
X5475782Y-13928445D01*
X5475782Y-13965478D01*
X5500014Y-13965478D01*
X5504992Y-13960449D01*
X5504992Y-13880490D01*
X5500014Y-13875461D01*
G37*
G36*
X5420004Y-14034465D02*
G01*
X5414975Y-14039494D01*
X5414975Y-14119453D01*
X5420004Y-14124482D01*
X5499963Y-14124482D01*
X5504992Y-14119453D01*
X5504992Y-14039494D01*
X5499963Y-14034465D01*
X5477205Y-14034465D01*
X5477205Y-14071447D01*
X5444185Y-14071447D01*
X5444185Y-14034465D01*
G37*
G36*
X5420004Y-11335461D02*
G01*
X5414975Y-11340490D01*
X5414975Y-11420449D01*
X5420004Y-11425478D01*
X5442813Y-11425478D01*
X5442813Y-11388496D01*
X5475782Y-11388496D01*
X5475782Y-11425478D01*
X5500014Y-11425478D01*
X5504992Y-11420449D01*
X5504992Y-11340490D01*
X5500014Y-11335461D01*
G37*
G36*
X5420004Y-11494465D02*
G01*
X5414975Y-11499494D01*
X5414975Y-11579453D01*
X5420004Y-11584482D01*
X5499963Y-11584482D01*
X5504992Y-11579453D01*
X5504992Y-11499494D01*
X5499963Y-11494465D01*
X5477205Y-11494465D01*
X5477205Y-11531498D01*
X5444185Y-11531498D01*
X5444185Y-11494465D01*
G37*
D10*
G01*
X799998Y-3410000D03*
D11*
G01*
X1450009Y-3119983D03*
G01*
X1509979Y-3689985D03*
D12*
G01*
X6910019Y-2690342D03*
G01*
X7069937Y-2689631D03*
D13*
G01*
X5909995Y-3229990D03*
G01*
X5489981Y-3229990D03*
D14*
G01*
X7119975Y-8169986D03*
G01*
X7119975Y-8589975D03*
D15*
G01*
X3096691Y-2610002D03*
G01*
X2443276Y-2610002D03*
D11*
G01*
X5059984Y-8699982D03*
G01*
X5059984Y-8559977D03*
G01*
X5080000Y-11199977D03*
G01*
X5080000Y-11059972D03*
G01*
X5089982Y-13709980D03*
G01*
X5089982Y-13569975D03*
G01*
X5086477Y-16089680D03*
G01*
X5086477Y-15949676D03*
D16*
G01*
X919987Y-2019985D03*
G01*
X780008Y-2019985D03*
D12*
G01*
X5260340Y-8709939D03*
G01*
X5259628Y-8550046D03*
G01*
X5270347Y-11199926D03*
G01*
X5269636Y-11040033D03*
G01*
X5280329Y-13719937D03*
G01*
X5279643Y-13560018D03*
G01*
X5289931Y-16099917D03*
G01*
X5289245Y-15940024D03*
G01*
X13090321Y-9879939D03*
G01*
X13089610Y-9720046D03*
G01*
X6369659Y-5850077D03*
G01*
X6370345Y-6009970D03*
D17*
G01*
X7342504Y-3524478D03*
G01*
X7277506Y-3524478D03*
G01*
X7212507Y-3524478D03*
G01*
X7147509Y-3524478D03*
G01*
X7082510Y-3524478D03*
G01*
X7017511Y-3524478D03*
G01*
X6952488Y-3524478D03*
G01*
X6887489Y-3524478D03*
G01*
X6822490Y-3524478D03*
G01*
X6757492Y-3524478D03*
G01*
X6692493Y-3524478D03*
G01*
X6627495Y-3524478D03*
G01*
X6562496Y-3524478D03*
G01*
X6497497Y-3524478D03*
G01*
X7342504Y-4215511D03*
G01*
X7277506Y-4215511D03*
G01*
X7212507Y-4215511D03*
G01*
X7147509Y-4215511D03*
G01*
X7082510Y-4215511D03*
G01*
X7017511Y-4215511D03*
G01*
X6952488Y-4215511D03*
G01*
X6887489Y-4215511D03*
G01*
X6822490Y-4215511D03*
G01*
X6757492Y-4215511D03*
G01*
X6692493Y-4215511D03*
G01*
X6627495Y-4215511D03*
G01*
X6562496Y-4215511D03*
G01*
X6497497Y-4215511D03*
D18*
G01*
X10494975Y-4246498D03*
G01*
X10304983Y-4246498D03*
G01*
X10399979Y-4493488D03*
D20*
G01*
X10389971Y-5146497D03*
G01*
X10389971Y-4753482D03*
D21*
G01*
X3965498Y-2210003D03*
G01*
X3454501Y-2210003D03*
D20*
G01*
X3849979Y-703503D03*
G01*
X3849979Y-1096492D03*
D16*
G01*
X3389985Y-1669999D03*
G01*
X3249980Y-1669999D03*
D22*
G01*
X724998Y-2920744D03*
G01*
X974998Y-2920744D03*
D23*
G01*
X724992Y-2359253D03*
G01*
X975004Y-2359253D03*
D24*
G01*
X1250123Y-3504992D03*
G01*
X1250123Y-3314993D03*
G01*
X1029872Y-3409993D03*
D25*
G01*
X2970911Y-1432813D03*
G01*
X3428898Y-1432813D03*
D26*
G01*
X3199511Y-767359D03*
D11*
G01*
X7359980Y-2846984D03*
G01*
X7359980Y-2986989D03*
D16*
G01*
X6809993Y-4880000D03*
G01*
X6669989Y-4880000D03*
D27*
G01*
X958702Y-3909992D03*
D28*
G01*
X1441297Y-3909999D03*
D29*
G01*
X5497423Y-4780000D03*
G01*
X5822543Y-4780000D03*
D30*
G01*
X1352981Y-5269966D03*
G01*
X1606981Y-5269966D03*
G01*
X1606981Y-4309998D03*
G01*
X1352981Y-4309998D03*
D31*
G01*
X8659977Y-8249996D03*
G01*
X8659977Y-9149969D03*
D16*
G01*
X6806412Y-4674463D03*
G01*
X6666433Y-4674463D03*
D13*
G01*
X5826048Y-3799992D03*
G01*
X5493943Y-3799992D03*
D14*
G01*
X7829981Y-8223935D03*
G01*
X7829981Y-8556040D03*
D12*
G01*
X7566380Y-5024120D03*
G01*
X7406487Y-5024831D03*
G01*
X7566380Y-4684115D03*
G01*
X7406487Y-4684826D03*
M02*
