G04 Layer: BottomSolderMaskLayer*
G04 EasyEDA v6.5.54, 2026-04-15 14:19:41*
G04 f99edf9f5cd84b74b57bf5261354b4ee,5dced3e560e646c4aeb98d0811621806,10*
G04 Gerber Generator version 0.2*
G04 Scale: 100 percent, Rotated: No, Reflected: No *
G04 Dimensions in millimeters *
G04 leading zeros omitted , absolute positions ,4 integer and 5 decimal *
%FSLAX45Y45*%
%MOMM*%

%AMMACRO1*4,1,8,-1.2711,-1.3008,-1.3008,-1.271,-1.3008,1.2711,-1.2711,1.3008,1.271,1.3008,1.3008,1.2711,1.3008,-1.271,1.271,-1.3008,-1.2711,-1.3008,0*%
%AMMACRO2*4,1,8,-0.9211,-0.9508,-0.9508,-0.921,-0.9508,0.9211,-0.9211,0.9508,0.921,0.9508,0.9508,0.9211,0.9508,-0.921,0.921,-0.9508,-0.9211,-0.9508,0*%
%AMMACRO3*4,1,8,-0.8207,-0.85,-0.85,-0.8207,-0.85,0.8207,-0.8207,0.85,0.8207,0.85,0.85,0.8207,0.85,-0.8207,0.8207,-0.85,-0.8207,-0.85,0*%
%ADD10C,2.1016*%
%ADD11C,1.7000*%
%ADD12C,2.1000*%
%ADD13C,1.9016*%
%ADD14C,1.6256*%
%ADD15C,2.8956*%
%ADD16C,1.6260*%
%ADD17C,0.0111*%
%ADD18MACRO1*%
%ADD19C,2.6016*%
%ADD20MACRO2*%
%ADD21C,2.6000*%
%ADD22MACRO3*%

%LPD*%
D10*
G01*
X11709984Y-1480007D03*
G01*
X12689966Y-1630019D03*
G01*
X10729975Y-1630019D03*
D11*
G01*
X10303992Y-3049955D03*
G01*
X9795992Y-3049955D03*
D12*
G01*
X9614992Y-4834991D03*
G01*
X9784994Y-4084980D03*
D13*
G01*
X10765967Y-3049981D03*
G01*
X11273967Y-3049981D03*
D14*
G01*
X1899996Y-14139976D03*
G01*
X1899996Y-13885976D03*
G01*
X1899996Y-14393976D03*
D10*
G01*
X13349960Y-5819978D03*
G01*
X13349960Y-8749969D03*
G01*
X13339978Y-7769987D03*
G01*
X13499972Y-6799986D03*
D15*
G01*
X11979909Y-3659987D03*
G01*
X11379961Y-5080000D03*
G01*
X10779963Y-4880000D03*
G01*
X11979960Y-4880000D03*
G01*
X10780013Y-3659987D03*
D14*
G01*
X4826990Y-8690483D03*
G01*
X4572990Y-8563483D03*
G01*
X4826990Y-8436483D03*
G01*
X4572990Y-8309483D03*
G01*
X4826990Y-8182483D03*
G01*
X4572990Y-8817483D03*
G01*
X4826990Y-11190478D03*
G01*
X4572990Y-11063478D03*
G01*
X4826990Y-10936478D03*
G01*
X4572990Y-10809478D03*
G01*
X4826990Y-10682478D03*
G01*
X4572990Y-11317478D03*
G01*
X4826990Y-13690472D03*
D16*
G01*
X4572990Y-13563472D03*
D14*
G01*
X4826990Y-13436472D03*
G01*
X4572990Y-13309472D03*
G01*
X4826990Y-13182472D03*
G01*
X4572990Y-13817472D03*
G01*
X4826990Y-16090468D03*
G01*
X4572990Y-15963468D03*
G01*
X4826990Y-15836468D03*
G01*
X4572990Y-15709468D03*
G01*
X4826990Y-15582468D03*
G01*
X4572990Y-16217468D03*
D18*
G01*
X8187983Y-699999D03*
D19*
G01*
X7680020Y-699998D03*
G01*
X7172020Y-699998D03*
D18*
G01*
X6377986Y-699999D03*
D19*
G01*
X5869990Y-699998D03*
G01*
X5361990Y-699998D03*
D13*
G01*
X8079993Y-4174997D03*
G01*
X8079993Y-3920997D03*
G01*
X8079993Y-3666997D03*
G01*
X8079993Y-3412997D03*
G01*
X8079993Y-3158997D03*
D20*
G01*
X8079983Y-2904992D03*
D14*
G01*
X1899996Y-6829983D03*
G01*
X1899996Y-6575983D03*
G01*
X1899996Y-7083983D03*
G01*
X1899996Y-10549991D03*
G01*
X1899996Y-10295991D03*
G01*
X1899996Y-10803991D03*
G01*
X10859973Y-18139968D03*
G01*
X10605973Y-18139968D03*
G01*
X11113973Y-18139968D03*
G01*
X4090009Y-18139943D03*
G01*
X3836009Y-18139943D03*
G01*
X4344009Y-18139943D03*
G01*
X13129971Y-12919963D03*
G01*
X13129971Y-13173963D03*
G01*
X13129971Y-12665963D03*
G01*
X7549972Y-18139968D03*
G01*
X7295972Y-18139968D03*
G01*
X7803972Y-18139968D03*
D21*
G01*
X9769957Y-5659983D03*
G01*
X11849963Y-5659983D03*
G01*
X10569956Y-10160000D03*
G01*
X9769957Y-10160000D03*
D22*
G01*
X5325988Y-5499989D03*
D11*
G01*
X5579973Y-5499988D03*
G01*
X5833973Y-5499988D03*
D10*
G01*
X2523972Y-3364001D03*
G01*
X2523972Y-5396001D03*
G01*
X4555972Y-4634001D03*
G01*
X4555972Y-4126001D03*
M02*
